<?xml version="1.0" encoding="utf-8"?>
<!-- Generator: Adobe Illustrator 18.0.0, SVG Export Plug-In . SVG Version: 6.00 Build 0)  -->
<!DOCTYPE svg PUBLIC "-//W3C//DTD SVG 1.1//EN" "http://www.w3.org/Graphics/SVG/1.1/DTD/svg11.dtd">
<svg version="1.1" xmlns="http://www.w3.org/2000/svg" xmlns:xlink="http://www.w3.org/1999/xlink" x="0px" y="0px"
	 viewBox="0 0 439.2 75.6" enable-background="new 0 0 439.2 75.6" xml:space="preserve">
<g id="Layer_2" display="none">
</g>
<g id="Layer_1">
	<g display="none">
		<g display="inline">
			<path fill="#63A331" d="M119.2,47.3H97.8L94.3,55H86l18.3-40.8h8.4L131,55h-8.4L119.2,47.3z M108.5,22.7l-7.6,17.4h15.2
				L108.5,22.7z"/>
			<path fill="#63A331" d="M159,24c-1.4-2.3-5.2-4.5-9.7-4.5c-5.7,0-8.5,2.4-8.5,5.4c0,3.6,4.2,4.5,9.1,5.1c8.5,1,16.4,3.3,16.4,13
				c0,9.1-8,13-17.1,13c-8.3,0-14.7-2.6-17.8-10l6.4-3.3c1.8,4.5,6.5,6.5,11.5,6.5c4.8,0,9.4-1.7,9.4-6.1c0-3.8-4-5.4-9.4-6
				c-8.3-1-16-3.2-16-12.4c0-8.4,8.3-11.8,15.8-11.9c6.4,0,12.9,1.8,16,8.1L159,24z"/>
			<path fill="#63A331" d="M205.1,14.4L187,33.9l19.6,20.6V55h-9.5l-17.1-18.1V55h-7.7V14.2h7.7v17.3l15.5-17.3h9.6V14.4z"/>
			<path fill="#63A331" d="M237.4,14.1h7.7V55h-4.8V55l-21.5-27.6V55h-7.7V14.2h6.2l20,25.3V14.1z"/>
			<path fill="#195176" d="M279.4,22c-3-4.8-7.8-5.5-12.4-5.5c-4.8,0-12.4,1.7-12.4,8.3c0,5.2,5.6,6.4,12.5,7.7
				c7.9,1.5,16,2.9,16,11.7c-0.1,9.2-9.3,11.4-16.1,11.4c-6.4,0-13.6-2.6-16.7-8.9l2.8-1.4c2.5,5,8.9,7.4,13.9,7.4s13-1.4,13-8.6
				c0.1-6.1-6.7-7.5-13.4-8.7c-7.5-1.5-15.1-3-15.1-10.5c-0.2-8.6,8.8-11.3,15.5-11.3c5.8,0,10.9,0.9,14.9,6.9L279.4,22z"/>
			<path fill="#195176" d="M329.3,34.6c-0.1,10.7-6.9,21-20.6,21c-13.7,0-20.6-10.4-20.6-21.2c0-11,6.8-21,20.6-21
				S329.3,23.6,329.3,34.6z M291.2,34.6c0.1,9.2,5.9,18.2,17.5,18.2c11.7,0,17.5-9,17.5-18.2c0-9.4-5.8-18.1-17.5-18.1
				S291.1,24.9,291.2,34.6z"/>
			<path fill="#195176" d="M339.9,14.2V52h23v3h-26.1V14.2H339.9z"/>
			<path fill="#195176" d="M396.6,14.2l-16.8,40.9h-3.4l-16.8-40.9h3.4l15.1,37.3l15.1-37.3H396.6z"/>
			<path fill="#195176" d="M405.1,33H429v2.9h-23.9v16.1h25.8v3H402V14.2h28.2v3h-25.1V33z"/>
		</g>
		<path display="inline" fill="#195176" d="M62.4,24.6V1.9H39.8v-7.5H20.1v7.5H-2.6v22.7h-7.5v19.7h7.5v22.7h22.7v7.5h19.7v-7.5
			h22.7V44.2h7.5V24.6H62.4z M39.8,6.7h17.9v17.9h-7.4V32h-9.1c-0.9-4.4-4.4-7.9-8.8-8.8v-9.1h7.4V6.7z M35.8,34.4
			c0,3.3-2.7,5.9-5.9,5.9c-3.3,0-5.9-2.6-5.9-5.9c0-3.3,2.7-5.9,5.9-5.9C33.2,28.5,35.8,31.1,35.8,34.4z M25-0.7h9.8v9.8H25V-0.7z
			 M2.2,6.7h17.9v7.4h7.4v9.1c-4.4,0.9-7.9,4.4-8.8,8.8H9.6v-7.4H2.2V6.7z M-5.2,39.3v-9.8h9.8v9.8H-5.2z M20.1,62.1H2.2V44.2h7.4
			v-7.4h9.2c0.9,4.4,4.4,7.8,8.8,8.8v9.1h-7.4V62.1z M34.8,69.5H25v-9.8h9.8V69.5z M57.6,62.1H39.8v-7.4h-7.4v-9.1
			c4.4-0.9,7.8-4.4,8.8-8.8h9.1v7.4h7.4V62.1z M65,39.3h-9.8v-9.8H65V39.3z"/>
	</g>
	<g display="none">
		<g display="inline">
			<g>
				<path fill="#63A331" d="M119.2,47.3H97.8L94.3,55H86l18.3-40.8h8.4L131,55h-8.4L119.2,47.3z M108.5,22.7l-7.6,17.4h15.2
					L108.5,22.7z"/>
				<path fill="#63A331" d="M159,24c-1.4-2.3-5.2-4.5-9.7-4.5c-5.7,0-8.5,2.4-8.5,5.4c0,3.6,4.2,4.5,9.1,5.1c8.5,1,16.4,3.3,16.4,13
					c0,9.1-8,13-17.1,13c-8.3,0-14.7-2.6-17.8-10l6.4-3.3c1.8,4.5,6.5,6.5,11.5,6.5c4.8,0,9.4-1.7,9.4-6.1c0-3.8-4-5.4-9.4-6
					c-8.3-1-16-3.2-16-12.4c0-8.4,8.3-11.8,15.8-11.9c6.4,0,12.9,1.8,16,8.1L159,24z"/>
				<path fill="#63A331" d="M205.1,14.4L187,33.9l19.6,20.6V55h-9.5l-17.1-18.1V55h-7.7V14.2h7.7v17.3l15.5-17.3h9.6V14.4z"/>
				<path fill="#63A331" d="M237.4,14.1h7.7V55h-4.8V55l-21.5-27.6V55h-7.7V14.2h6.2l20,25.3V14.1z"/>
				<path fill="#195176" d="M279.4,22c-3-4.8-7.8-5.5-12.4-5.5c-4.8,0-12.4,1.7-12.4,8.3c0,5.2,5.6,6.4,12.5,7.7
					c7.9,1.5,16,2.9,16,11.7c-0.1,9.2-9.3,11.4-16.1,11.4c-6.4,0-13.6-2.6-16.7-8.9l2.8-1.4c2.5,5,8.9,7.4,13.9,7.4s13-1.4,13-8.6
					c0.1-6.1-6.7-7.5-13.4-8.7c-7.5-1.5-15.1-3-15.1-10.5c-0.2-8.6,8.8-11.3,15.5-11.3c5.8,0,10.9,0.9,14.9,6.9L279.4,22z"/>
				<path fill="#195176" d="M329.3,34.6c-0.1,10.7-6.9,21-20.6,21c-13.7,0-20.6-10.4-20.6-21.2c0-11,6.8-21,20.6-21
					S329.3,23.6,329.3,34.6z M291.2,34.6c0.1,9.2,5.9,18.2,17.5,18.2c11.7,0,17.5-9,17.5-18.2c0-9.4-5.8-18.1-17.5-18.1
					S291.1,24.9,291.2,34.6z"/>
				<path fill="#195176" d="M339.9,14.2V52h23v3h-26.1V14.2H339.9z"/>
				<path fill="#195176" d="M396.6,14.2l-16.8,40.9h-3.4l-16.8-40.9h3.4l15.1,37.3l15.1-37.3H396.6z"/>
				<path fill="#195176" d="M405.1,33H429v2.9h-23.9v16.1h25.8v3H402V14.2h28.2v3h-25.1V33z"/>
			</g>
			<g>
				<path fill="#195176" d="M79.5,21.3C73.7,4.2,55.1-4.9,38.1,0.9c-0.3,0.1-0.6,0.2-0.9,0.4l1.8,5.9c17-5.6,35.4,3.5,41.2,20.5
					c0.5,1.4,0.8,2.7,1.1,4.1C81.2,28.2,80.6,24.7,79.5,21.3z"/>
				<path fill="#195176" d="M15.6,6.1C3.7,19.7,5.1,40.3,18.7,52.2c0.3,0.2,0.5,0.4,0.8,0.6l4.2-4.5C10.2,36.4,8.9,15.9,20.7,2.4
					c0.9-1.1,2-2.1,3-3C20.8,1.2,18,3.4,15.6,6.1z"/>
				<g>
					<path fill="#63A331" d="M32.1,23.5c-0.6,0.8-1.1,1.7-1.6,2.7c-0.6-0.4-1.3-0.7-1.9-1.1c0.5-1.1,1.1-2,1.8-2.9
						C31,22.6,31.5,23.1,32.1,23.5z"/>
					<path fill="#63A331" d="M39.4,16.8c-1.2,0.6-2.4,1.3-3.5,2.1c-0.6-0.8-1.1-1.6-1.7-2.5c1.3-0.9,2.6-1.7,4-2.3
						C38.6,15,39,15.9,39.4,16.8z"/>
					<path fill="#63A331" d="M48.9,14.2c-1.7,0-3.4,0.2-5.1,0.6c-0.2-1.2-0.5-2.5-0.7-3.7c2-0.4,4-0.6,6.1-0.6
						C49.1,11.8,49,13,48.9,14.2z"/>
					<path fill="#63A331" d="M58.6,15.9c-1.9-0.9-3.9-1.5-6-1.9c0.3-1.5,0.7-3,1.1-4.4c2.5,0.4,5,1.2,7.2,2.3
						C60.2,13.3,59.4,14.6,58.6,15.9z"/>
					<path fill="#63A331" d="M66.4,22c-1.4-2.1-3.3-3.9-5.3-5.2c1.1-1.4,2.2-2.9,3.4-4.2c2.6,1.7,4.8,4,6.6,6.7
						C69.5,20.1,68,21,66.4,22z"/>
					<path fill="#63A331" d="M70.4,32.5c-0.2-3.7-1.2-6.8-2.7-9.5c1.8-1,3.7-1.9,5.6-2.7c1.9,3.5,3.1,7.7,3.3,12.5
						C74.5,32.7,72.5,32.6,70.4,32.5z"/>
				</g>
				<g>
					<path fill="#63A331" d="M41.2,46c1,0.1,2.1,0.1,3.1,0c0,0.7,0,1.5,0,2.2c-1.2,0.1-2.3,0.1-3.4,0C41,47.5,41.1,46.8,41.2,46z"/>
					<path fill="#63A331" d="M31.8,43.1c1.1,0.8,2.3,1.4,3.5,2c-0.4,0.9-0.8,1.8-1.3,2.7c-1.4-0.6-2.8-1.4-4-2.3
						C30.6,44.7,31.2,43.9,31.8,43.1z"/>
					<path fill="#63A331" d="M24.8,36.1c0.9,1.5,1.9,2.9,3.1,4.2c-0.9,0.8-1.9,1.6-2.9,2.4c-1.4-1.5-2.6-3.2-3.6-4.9
						C22.6,37.2,23.7,36.7,24.8,36.1z"/>
					<path fill="#63A331" d="M21.4,26.9C21.6,29,22,31,22.8,33c-1.5,0.4-2.9,0.9-4.4,1.2c-0.9-2.4-1.4-4.9-1.6-7.4
						C18.3,26.9,19.9,26.9,21.4,26.9z"/>
					<path fill="#63A331" d="M22.7,17.1c-1.1,2.3-1.7,4.7-1.8,7.2c-1.8-0.2-3.6-0.5-5.4-0.8c0.2-3.1,1-6.2,2.5-9
						C19.5,15.4,21.1,16.2,22.7,17.1z"/>
					<path fill="#63A331" d="M29.9,8.4c-3,2-5.3,4.5-6.9,7.1c-1.7-1.1-3.5-2.3-5.2-3.5C20,8.6,23,5.5,27.1,2.9
						C28,4.7,28.9,6.6,29.9,8.4z"/>
				</g>
				<g>
					<path fill="#63A331" d="M56.2,26.9c-0.4-0.9-0.9-1.8-1.5-2.7c0.6-0.4,1.3-0.7,1.9-1.1c0.7,1,1.2,2,1.7,3
						C57.5,26.3,56.9,26.6,56.2,26.9z"/>
					<path fill="#63A331" d="M58.3,36.5c0.1-1.3,0.1-2.7-0.1-4.1c1-0.1,2-0.2,3-0.2c0.2,1.5,0.2,3.1,0,4.6
						C60.3,36.7,59.3,36.6,58.3,36.5z"/>
					<path fill="#63A331" d="M55.8,46.1c0.9-1.5,1.6-3.1,2.1-4.7c1.2,0.4,2.4,0.8,3.5,1.3c-0.6,2-1.5,3.8-2.5,5.6
						C57.9,47.4,56.8,46.7,55.8,46.1z"/>
					<path fill="#63A331" d="M49.5,53.6c1.7-1.2,3.2-2.6,4.6-4.2c1.1,1,2.2,2.1,3.3,3.2c-1.6,2-3.5,3.7-5.6,5.1
						C51,56.3,50.3,54.9,49.5,53.6z"/>
					<path fill="#63A331" d="M40.4,57.4c2.5-0.2,5-0.9,7.2-2c0.7,1.7,1.4,3.4,2,5.1c-2.8,1.4-5.8,2.2-9.1,2.4
						C40.5,61,40.4,59.2,40.4,57.4z"/>
					<path fill="#63A331" d="M29.2,55.5c3.3,1.6,6.5,2.4,9.6,2.4c-0.1,2.1-0.2,4.1-0.4,6.2c-4-0.1-8.2-1.2-12.5-3.4
						C27.1,59,28.2,57.3,29.2,55.5z"/>
				</g>
				<path fill="#195176" d="M34.4,69c17.7,3.5,34.9-8,38.4-25.7c0.1-0.3,0.1-0.7,0.2-1L67,41c-3.6,17.5-20.7,28.9-38.3,25.4
					c-1.4-0.3-2.8-0.7-4.1-1.1C27.6,67,30.9,68.3,34.4,69z"/>
			</g>
		</g>
	</g>
	<g display="none">
		<g display="inline">
			<g>
				<polygon fill="#195176" points="58.2,-4.9 99.4,59.7 77.4,59.7 58.2,29.6 38.9,59.7 16.9,59.7 				"/>
				<polygon fill="#8BC53F" points="58.2,37.8 72.1,59.7 44.2,59.7 				"/>
			</g>
			<text transform="matrix(1 0 0 1 110.9327 48.0316)"><tspan x="0" y="0" fill="#195176" font-family="'NeuropoliticalRg-Regular'" font-size="47.1293">Askn</tspan><tspan x="95.8" y="0" fill="#8BC53F" font-family="'NeuropoliticalRg-Regular'" font-size="47.1293">Solve</tspan></text>
		</g>
	</g>
	<g>
		<path fill="#7AC943" d="M152.5,52.3h-23.9l-3.9,8.6h-9.3l20.5-45.7h9.4l20.5,45.7h-9.4L152.5,52.3z M140.6,24.8l-8.5,19.5h17
			L140.6,24.8z"/>
		<path fill="#7AC943" d="M190.1,37.3c-2.3-2.2-4.9-2.9-8-2.9c-3.8,0-5.9,1.2-5.9,3.2c0,2.1,1.9,3.3,6,3.5
			c6.1,0.4,13.8,1.8,13.8,10.3c0,5.7-4.6,10.6-13.8,10.6c-5.1,0-10.2-0.8-14.9-5.7l3.9-5.7c2.3,2.5,7.5,4.4,11.1,4.5
			c3,0.1,5.8-1.5,5.8-3.9c0-2.2-1.8-3.1-6.4-3.4c-6.1-0.5-13.3-2.7-13.3-10c0-7.4,7.7-10.1,13.6-10.1c5,0,8.8,1,12.5,4.2L190.1,37.3
			z"/>
		<path fill="#7AC943" d="M208.9,15.2v26.4l10.8-12.9h9.5v0.5l-13.1,14.7l15,16.5v0.6h-9.6l-12.6-14.6v14.6h-8V15.2H208.9z"/>
		<path fill="#7AC943" d="M258.4,60.9V44c0-4.9-2.7-8.6-7.8-8.6c-4.9,0-8.2,4.1-8.2,9v16.5h-7.9V28.6h7.1l0.5,4.4
			c3.3-3.2,6.5-4.8,10.6-4.8c7.6,0,13.6,5.7,13.6,15.8v16.9H258.4z"/>
		<path fill="#009245" d="M302,26.2c-1.6-2.6-5.9-5.1-10.8-5.1c-6.4,0-9.5,2.7-9.5,6.1c0,4,4.7,5.1,10.2,5.7
			c9.5,1.2,18.4,3.7,18.4,14.6c0,10.2-9,14.6-19.2,14.6c-9.3,0-16.5-2.9-19.9-11.2l7.2-3.7c2,5,7.3,7.2,12.9,7.2
			c5.4,0,10.5-1.9,10.5-6.9c0-4.3-4.5-6.1-10.6-6.7c-9.3-1.1-18-3.6-18-13.8c0-9.4,9.3-13.3,17.7-13.3c7.1,0,14.5,2,18,9.1L302,26.2
			z"/>
		<path fill="#009245" d="M349.7,44.8c0,9.3-6.3,16.8-16.8,16.8s-16.7-7.5-16.7-16.8c0-9.2,6.4-16.8,16.6-16.8
			C343.1,28,349.7,35.6,349.7,44.8z M324.2,44.8c0,4.9,2.9,9.5,8.7,9.5c5.8,0,8.7-4.6,8.7-9.5c0-4.8-3.4-9.5-8.7-9.5
			C327.2,35.3,324.2,40,324.2,44.8z"/>
		<path fill="#009245" d="M363.1,15.2v45.6h-7.9V15.2H363.1z"/>
		<path fill="#009245" d="M403.4,28.6L389.7,61h-8.6l-13.8-32.4h8.7l4.4,10.6l5,13.6l4.9-13.4l4.4-10.8H403.4z"/>
		<path fill="#009245" d="M414.1,47.6c0.5,4,4,6.9,9.6,6.9c2.9,0,6.8-1.1,8.6-3l5.1,5c-3.4,3.5-8.9,5.2-13.8,5.2
			c-11.1,0-17.7-6.9-17.7-17.2c0-9.8,6.7-16.8,17.1-16.8c10.8,0,17.5,6.7,16.3,19.9H414.1z M431.6,41c-0.5-4.2-3.8-6.3-8.4-6.3
			c-4.3,0-7.8,2.1-9,6.3H431.6z"/>
	</g>
	<g display="none">
		<g display="inline">
			<path fill="#FFFFFF" d="M50.5-42.4L28.4-20.3V2.5c5.7,0,10.2,4.6,10.2,10.2c0,5.7-4.6,10.2-10.2,10.2v22.9l22.1,22.1h253.8
				l22.1-22.1V23c-5.7,0-10.2-4.6-10.2-10.2c0-5.7,4.6-10.2,10.2-10.2v-22.9l-22.1-22.1H50.5z"/>
			<path fill="#FEFEFE" d="M50.5-42.4L28.5-20.4V2.5c5.7,0,10.2,4.6,10.2,10.2c0,5.7-4.6,10.2-10.2,10.2v22.9l22.1,22.1h253.8
				l22.1-22.1V23c-5.7,0-10.2-4.6-10.2-10.2c0-5.7,4.6-10.2,10.2-10.2v-22.9l-22.1-22.1H50.5z"/>
			<path fill="#FDFDFD" d="M50.6-42.4L28.5-20.4V2.5c5.7,0,10.2,4.6,10.2,10.2c0,5.7-4.6,10.2-10.2,10.2v22.9l22.1,22.1h253.8
				l22.1-22.1V23c-5.7,0-10.2-4.6-10.2-10.2c0-5.7,4.6-10.2,10.2-10.2v-22.9l-22.1-22.1H50.6z"/>
			<path fill="#FCFCFC" d="M50.6-42.5L28.5-20.4V2.5c5.7,0,10.2,4.6,10.2,10.2c0,5.7-4.6,10.2-10.2,10.2v22.9l22.1,22.1h253.8
				l22.1-22.1V23c-5.7,0-10.2-4.6-10.2-10.2c0-5.7,4.6-10.2,10.2-10.2v-22.9l-22.1-22.1H50.6z"/>
			<path fill="#FBFBFB" d="M50.6-42.5L28.5-20.4V2.4c5.7,0,10.2,4.6,10.2,10.2c0,5.7-4.6,10.2-10.2,10.2v22.9l22.1,22.1h253.8
				l22.1-22.1V22.9c-5.7,0-10.2-4.6-10.2-10.2c0-5.7,4.6-10.2,10.2-10.2v-22.9l-22.1-22.1H50.6z"/>
			<path fill="#FAFAFA" d="M50.6-42.5L28.5-20.4V2.4c5.7,0,10.2,4.6,10.2,10.2c0,5.7-4.6,10.2-10.2,10.2v22.9l22.1,22.1h253.8
				l22.1-22.1V22.9c-5.7,0-10.2-4.6-10.2-10.2c0-5.7,4.6-10.2,10.2-10.2v-22.9l-22.1-22.1H50.6z"/>
			<path fill="#F9F9F9" d="M50.6-42.5L28.6-20.5V2.4c5.7,0,10.2,4.6,10.2,10.2c0,5.7-4.6,10.2-10.2,10.2v22.9l22.1,22.1h253.8
				l22.1-22.1V22.9c-5.7,0-10.2-4.6-10.2-10.2c0-5.7,4.6-10.2,10.2-10.2v-22.9l-22.1-22.1H50.6z"/>
			<path fill="#F8F8F8" d="M50.7-42.5L28.6-20.5V2.4c5.7,0,10.2,4.6,10.2,10.2c0,5.7-4.6,10.2-10.2,10.2v22.9l22.1,22.1h253.8
				l22.1-22.1V22.9c-5.7,0-10.2-4.6-10.2-10.2c0-5.7,4.6-10.2,10.2-10.2v-22.9l-22.1-22.1H50.7z"/>
			<path fill="#F7F7F7" d="M50.7-42.6L28.6-20.5V2.4c5.7,0,10.2,4.6,10.2,10.2c0,5.7-4.6,10.2-10.2,10.2v22.9l22.1,22.1h253.8
				l22.1-22.1V22.8c-5.7,0-10.2-4.6-10.2-10.2c0-5.7,4.6-10.2,10.2-10.2v-22.9l-22.1-22.1H50.7z"/>
			<path fill="#F6F6F6" d="M50.7-42.6L28.6-20.5V2.3c5.7,0,10.2,4.6,10.2,10.2c0,5.7-4.6,10.2-10.2,10.2v22.9l22.1,22.1h253.8
				l22.1-22.1V22.8c-5.7,0-10.2-4.6-10.2-10.2c0-5.7,4.6-10.2,10.2-10.2v-22.9l-22.1-22.1H50.7z"/>
			<path fill="#F5F5F5" d="M50.7-42.6L28.7-20.5V2.3c5.7,0,10.2,4.6,10.2,10.2c0,5.7-4.6,10.2-10.2,10.2v22.9l22.1,22.1h253.8
				l22.1-22.1V22.8c-5.7,0-10.2-4.6-10.2-10.2c0-5.7,4.6-10.2,10.2-10.2v-22.9l-22.1-22.1H50.7z"/>
			<path fill="#F4F4F4" d="M50.7-42.6L28.7-20.6V2.3c5.7,0,10.2,4.6,10.2,10.2c0,5.7-4.6,10.2-10.2,10.2v22.9l22.1,22.1h253.8
				l22.1-22.1V22.8c-5.7,0-10.2-4.6-10.2-10.2c0-5.7,4.6-10.2,10.2-10.2v-22.9l-22.1-22.1H50.7z"/>
			<path fill="#F3F3F4" d="M50.8-42.7L28.7-20.6V2.3c5.7,0,10.2,4.6,10.2,10.2c0,5.7-4.6,10.2-10.2,10.2v22.9l22.1,22.1h253.8
				l22.1-22.1V22.8c-5.7,0-10.2-4.6-10.2-10.2c0-5.7,4.6-10.2,10.2-10.2v-22.9l-22.1-22.1H50.8z"/>
			<path fill="#F2F2F3" d="M50.8-42.7L28.7-20.6V2.3C34.4,2.3,39,6.8,39,12.5c0,5.7-4.6,10.2-10.2,10.2v22.9l22.1,22.1h253.8
				l22.1-22.1V22.7c-5.7,0-10.2-4.6-10.2-10.2c0-5.7,4.6-10.2,10.2-10.2v-22.9l-22.1-22.1H50.8z"/>
			<path fill="#F1F1F2" d="M50.8-42.7L28.7-20.6V2.2C34.4,2.2,39,6.8,39,12.5c0,5.7-4.6,10.2-10.2,10.2v22.9l22.1,22.1h253.8
				l22.1-22.1V22.7c-5.7,0-10.2-4.6-10.2-10.2c0-5.7,4.6-10.2,10.2-10.2v-22.9l-22.1-22.1H50.8z"/>
			<path fill="#F0F0F1" d="M50.8-42.7L28.8-20.6V2.2C34.4,2.2,39,6.8,39,12.5c0,5.7-4.6,10.2-10.2,10.2v22.9l22.1,22.1h253.8
				l22.1-22.1V22.7c-5.7,0-10.2-4.6-10.2-10.2c0-5.7,4.6-10.2,10.2-10.2v-22.9l-22.1-22.1H50.8z"/>
			<path fill="#EFEFF0" d="M50.8-42.7L28.8-20.7V2.2C34.4,2.2,39,6.8,39,12.4c0,5.7-4.6,10.2-10.2,10.2v22.9l22.1,22.1h253.8
				l22.1-22.1V22.7c-5.7,0-10.2-4.6-10.2-10.2c0-5.7,4.6-10.2,10.2-10.2v-22.9l-22.1-22.1H50.8z"/>
			<path fill="#EEEEEF" d="M50.9-42.8L28.8-20.7V2.2C34.5,2.2,39,6.8,39,12.4c0,5.7-4.6,10.2-10.2,10.2v22.9l22.1,22.1h253.8
				l22.1-22.1V22.7c-5.7,0-10.2-4.6-10.2-10.2c0-5.7,4.6-10.2,10.2-10.2v-22.9l-22.1-22.1H50.9z"/>
			<path fill="#EDEDEE" d="M50.9-42.8L28.8-20.7V2.1c5.7,0,10.2,4.6,10.2,10.2c0,5.7-4.6,10.2-10.2,10.2v22.9l22.1,22.1h253.8
				l22.1-22.1V22.6c-5.7,0-10.2-4.6-10.2-10.2c0-5.7,4.6-10.2,10.2-10.2v-22.9l-22.1-22.1H50.9z"/>
			<path fill="#ECECED" d="M50.9-42.8L28.8-20.7V2.1c5.7,0,10.2,4.6,10.2,10.2c0,5.7-4.6,10.2-10.2,10.2v22.9l22.1,22.1h253.8
				l22.1-22.1V22.6c-5.7,0-10.2-4.6-10.2-10.2c0-5.7,4.6-10.2,10.2-10.2v-22.9l-22.1-22.1H50.9z"/>
			<path fill="#EBEBEC" d="M50.9-42.8L28.9-20.7V2.1c5.7,0,10.2,4.6,10.2,10.2c0,5.7-4.6,10.2-10.2,10.2v22.9l22.1,22.1h253.8
				l22.1-22.1V22.6c-5.7,0-10.2-4.6-10.2-10.2c0-5.7,4.6-10.2,10.2-10.2v-22.9l-22.1-22.1H50.9z"/>
			<path fill="#EAEBEB" d="M51-42.8L28.9-20.8V2.1c5.7,0,10.2,4.6,10.2,10.2c0,5.7-4.6,10.2-10.2,10.2v22.9L51,67.5h253.8l22.1-22.1
				V22.6c-5.7,0-10.2-4.6-10.2-10.2c0-5.7,4.6-10.2,10.2-10.2v-22.9l-22.1-22.1H51z"/>
			<path fill="#E9EAEA" d="M51-42.9L28.9-20.8V2.1c5.7,0,10.2,4.6,10.2,10.2c0,5.7-4.6,10.2-10.2,10.2v22.9L51,67.5h253.8l22.1-22.1
				V22.6c-5.7,0-10.2-4.6-10.2-10.2c0-5.7,4.6-10.2,10.2-10.2v-22.9l-22.1-22.1H51z"/>
			<path fill="#E8E9E9" d="M51-42.9L28.9-20.8V2c5.7,0,10.2,4.6,10.2,10.2c0,5.7-4.6,10.2-10.2,10.2v22.9L51,67.5h253.8l22.1-22.1
				V22.5c-5.7,0-10.2-4.6-10.2-10.2c0-5.7,4.6-10.2,10.2-10.2v-22.9l-22.1-22.1H51z"/>
			<path fill="#E7E8E8" d="M51-42.9L28.9-20.8V2c5.7,0,10.2,4.6,10.2,10.2c0,5.7-4.6,10.2-10.2,10.2v22.9L51,67.4h253.8l22.1-22.1
				V22.5c-5.7,0-10.2-4.6-10.2-10.2c0-5.7,4.6-10.2,10.2-10.2v-22.9l-22.1-22.1H51z"/>
			<path fill="#E6E7E7" d="M51-42.9L29-20.9V2c5.7,0,10.2,4.6,10.2,10.2c0,5.7-4.6,10.2-10.2,10.2v22.9L51,67.4h253.8l22.1-22.1
				V22.5c-5.7,0-10.2-4.6-10.2-10.2c0-5.7,4.6-10.2,10.2-10.2v-22.9l-22.1-22.1H51z"/>
			<path fill="#E5E6E6" d="M51.1-42.9L29-20.9V2c5.7,0,10.2,4.6,10.2,10.2c0,5.7-4.6,10.2-10.2,10.2v22.9l22.1,22.1h253.8l22.1-22.1
				V22.5c-5.7,0-10.2-4.6-10.2-10.2c0-5.7,4.6-10.2,10.2-10.2v-22.9l-22.1-22.1H51.1z"/>
			<path fill="#E4E5E5" d="M51.1-43L29-20.9V2c5.7,0,10.2,4.6,10.2,10.2c0,5.7-4.6,10.2-10.2,10.2v22.9l22.1,22.1h253.8l22.1-22.1
				V22.5c-5.7,0-10.2-4.6-10.2-10.2c0-5.7,4.6-10.2,10.2-10.2v-22.9L304.9-43H51.1z"/>
			<path fill="#E3E4E4" d="M51.1-43L29-20.9V1.9c5.7,0,10.2,4.6,10.2,10.2c0,5.7-4.6,10.2-10.2,10.2v22.9l22.1,22.1h253.8L327,45.3
				V22.4c-5.7,0-10.2-4.6-10.2-10.2c0-5.7,4.6-10.2,10.2-10.2v-22.9L304.9-43H51.1z"/>
			<path fill="#E2E3E3" d="M51.1-43L29-20.9V1.9c5.7,0,10.2,4.6,10.2,10.2c0,5.7-4.6,10.2-10.2,10.2v22.9l22.1,22.1h253.8L327,45.3
				V22.4c-5.7,0-10.2-4.6-10.2-10.2c0-5.7,4.6-10.2,10.2-10.2v-22.9L304.9-43H51.1z"/>
			<path fill="#E1E2E2" d="M51.1-43L29.1-21V1.9c5.7,0,10.2,4.6,10.2,10.2c0,5.7-4.6,10.2-10.2,10.2v22.9l22.1,22.1h253.8L327,45.2
				V22.4c-5.7,0-10.2-4.6-10.2-10.2c0-5.7,4.6-10.2,10.2-10.2V-21L304.9-43H51.1z"/>
			<path fill="#E0E1E1" d="M51.2-43L29.1-21V1.9c5.7,0,10.2,4.6,10.2,10.2c0,5.7-4.6,10.2-10.2,10.2v22.9l22.1,22.1H305L327,45.2
				V22.4c-5.7,0-10.2-4.6-10.2-10.2c0-5.7,4.6-10.2,10.2-10.2V-21L305-43H51.2z"/>
			<path fill="#DFE0E0" d="M51.2-43.1L29.1-21V1.9c5.7,0,10.2,4.6,10.2,10.2c0,5.7-4.6,10.2-10.2,10.2v22.9l22.1,22.1H305L327,45.2
				V22.3c-5.7,0-10.2-4.6-10.2-10.2c0-5.7,4.6-10.2,10.2-10.2V-21L305-43.1H51.2z"/>
			<path fill="#DEDFDF" d="M51.2-43.1L29.1-21V1.8c5.7,0,10.2,4.6,10.2,10.2c0,5.7-4.6,10.2-10.2,10.2v22.9l22.1,22.1H305l22.1-22.1
				V22.3c-5.7,0-10.2-4.6-10.2-10.2c0-5.7,4.6-10.2,10.2-10.2V-21L305-43.1H51.2z"/>
			<path fill="#DDDEDF" d="M51.2-43.1L29.2-21V1.8c5.7,0,10.2,4.6,10.2,10.2c0,5.7-4.6,10.2-10.2,10.2v22.9l22.1,22.1H305l22.1-22.1
				V22.3c-5.7,0-10.2-4.6-10.2-10.2c0-5.7,4.6-10.2,10.2-10.2V-21L305-43.1H51.2z"/>
			<path fill="#DCDDDE" d="M51.2-43.1L29.2-21.1V1.8c5.7,0,10.2,4.6,10.2,10.2c0,5.7-4.6,10.2-10.2,10.2v22.9l22.1,22.1H305
				l22.1-22.1V22.3c-5.7,0-10.2-4.6-10.2-10.2c0-5.7,4.6-10.2,10.2-10.2v-22.9L305-43.1H51.2z"/>
			<path fill="#DBDCDD" d="M51.3-43.2L29.2-21.1V1.8c5.7,0,10.2,4.6,10.2,10.2c0,5.7-4.6,10.2-10.2,10.2v22.9l22.1,22.1h253.8
				l22.1-22.1V22.3c-5.7,0-10.2-4.6-10.2-10.2c0-5.7,4.6-10.2,10.2-10.2v-22.9l-22.1-22.1H51.3z"/>
			<path fill="#DADBDC" d="M51.3-43.2L29.2-21.1V1.8c5.7,0,10.2,4.6,10.2,10.2c0,5.7-4.6,10.2-10.2,10.2v22.9l22.1,22.1h253.8
				l22.1-22.1V22.2c-5.7,0-10.2-4.6-10.2-10.2c0-5.7,4.6-10.2,10.2-10.2v-22.9l-22.1-22.1H51.3z"/>
			<path fill="#D9DADB" d="M51.3-43.2L29.2-21.1V1.7c5.7,0,10.2,4.6,10.2,10.2c0,5.7-4.6,10.2-10.2,10.2v22.9l22.1,22.1h253.8
				l22.1-22.1V22.2c-5.7,0-10.2-4.6-10.2-10.2c0-5.7,4.6-10.2,10.2-10.2v-22.9l-22.1-22.1H51.3z"/>
			<path fill="#D8D9DA" d="M51.3-43.2L29.3-21.1V1.7c5.7,0,10.2,4.6,10.2,10.2c0,5.7-4.6,10.2-10.2,10.2v22.9l22.1,22.1h253.8
				l22.1-22.1V22.2c-5.7,0-10.2-4.6-10.2-10.2c0-5.7,4.6-10.2,10.2-10.2v-22.9l-22.1-22.1H51.3z"/>
			<path fill="#D7D8D9" d="M51.3-43.2L29.3-21.2V1.7c5.7,0,10.2,4.6,10.2,10.2c0,5.7-4.6,10.2-10.2,10.2V45l22.1,22.1h253.8
				L327.2,45V22.2c-5.7,0-10.2-4.6-10.2-10.2c0-5.7,4.6-10.2,10.2-10.2v-22.9l-22.1-22.1H51.3z"/>
			<path fill="#D6D7D8" d="M51.4-43.3L29.3-21.2V1.7c5.7,0,10.2,4.6,10.2,10.2c0,5.7-4.6,10.2-10.2,10.2V45l22.1,22.1h253.8
				L327.2,45V22.2c-5.7,0-10.2-4.6-10.2-10.2c0-5.7,4.6-10.2,10.2-10.2v-22.9l-22.1-22.1H51.4z"/>
			<path fill="#D5D6D7" d="M51.4-43.3L29.3-21.2V1.6c5.7,0,10.2,4.6,10.2,10.2c0,5.7-4.6,10.2-10.2,10.2V45l22.1,22.1h253.8
				L327.3,45V22.1c-5.7,0-10.2-4.6-10.2-10.2c0-5.7,4.6-10.2,10.2-10.2v-22.9l-22.1-22.1H51.4z"/>
			<path fill="#D4D5D6" d="M51.4-43.3L29.3-21.2V1.6c5.7,0,10.2,4.6,10.2,10.2c0,5.7-4.6,10.2-10.2,10.2V45L51.4,67h253.8L327.3,45
				V22.1c-5.7,0-10.2-4.6-10.2-10.2c0-5.7,4.6-10.2,10.2-10.2v-22.9l-22.1-22.1H51.4z"/>
			<path fill="#D3D4D5" d="M51.4-43.3L29.4-21.2V1.6c5.7,0,10.2,4.6,10.2,10.2c0,5.7-4.6,10.2-10.2,10.2V45L51.4,67h253.8L327.3,45
				V22.1c-5.7,0-10.2-4.6-10.2-10.2c0-5.7,4.6-10.2,10.2-10.2v-22.9l-22.1-22.1H51.4z"/>
			<path fill="#D2D3D4" d="M51.5-43.3L29.4-21.3V1.6c5.7,0,10.2,4.6,10.2,10.2c0,5.7-4.6,10.2-10.2,10.2v22.9L51.5,67h253.8
				l22.1-22.1V22.1c-5.7,0-10.2-4.6-10.2-10.2c0-5.7,4.6-10.2,10.2-10.2v-22.9l-22.1-22.1H51.5z"/>
			<path fill="#D1D2D3" d="M51.5-43.4L29.4-21.3V1.6c5.7,0,10.2,4.6,10.2,10.2c0,5.7-4.6,10.2-10.2,10.2v22.9L51.5,67h253.8
				l22.1-22.1V22.1c-5.7,0-10.2-4.6-10.2-10.2c0-5.7,4.6-10.2,10.2-10.2v-22.9l-22.1-22.1H51.5z"/>
			<path fill="#D0D1D2" d="M51.5-43.4L29.4-21.3V1.5c5.7,0,10.2,4.6,10.2,10.2c0,5.7-4.6,10.2-10.2,10.2v22.9L51.5,67h253.8
				l22.1-22.1V22c-5.7,0-10.2-4.6-10.2-10.2c0-5.7,4.6-10.2,10.2-10.2v-22.9l-22.1-22.1H51.5z"/>
			<path fill="#CFD0D1" d="M51.5-43.4L29.4-21.3V1.5c5.7,0,10.2,4.6,10.2,10.2c0,5.7-4.6,10.2-10.2,10.2v22.9l22.1,22.1h253.8
				l22.1-22.1V22c-5.7,0-10.2-4.6-10.2-10.2c0-5.7,4.6-10.2,10.2-10.2v-22.9l-22.1-22.1H51.5z"/>
			<path fill="#CECFD0" d="M51.5-43.4L29.5-21.4V1.5c5.7,0,10.2,4.6,10.2,10.2c0,5.7-4.6,10.2-10.2,10.2v22.9l22.1,22.1h253.8
				l22.1-22.1V22c-5.7,0-10.2-4.6-10.2-10.2c0-5.7,4.6-10.2,10.2-10.2v-22.9l-22.1-22.1H51.5z"/>
			<path fill="#CDCECF" d="M51.6-43.4L29.5-21.4V1.5c5.7,0,10.2,4.6,10.2,10.2c0,5.7-4.6,10.2-10.2,10.2v22.9l22.1,22.1h253.8
				l22.1-22.1V22c-5.7,0-10.2-4.6-10.2-10.2c0-5.7,4.6-10.2,10.2-10.2v-22.9l-22.1-22.1H51.6z"/>
			<path fill="#CDCDCE" d="M51.6-43.5L29.5-21.4V1.5c5.7,0,10.2,4.6,10.2,10.2c0,5.7-4.6,10.2-10.2,10.2v22.9l22.1,22.1h253.8
				l22.1-22.1V22c-5.7,0-10.2-4.6-10.2-10.2c0-5.7,4.6-10.2,10.2-10.2v-22.9l-22.1-22.1H51.6z"/>
			<path fill="#CCCCCD" d="M51.6-43.5L29.5-21.4V1.4c5.7,0,10.2,4.6,10.2,10.2c0,5.7-4.6,10.2-10.2,10.2v22.9l22.1,22.1h253.8
				l22.1-22.1V21.9c-5.7,0-10.2-4.6-10.2-10.2c0-5.7,4.6-10.2,10.2-10.2v-22.9l-22.1-22.1H51.6z"/>
			<path fill="#CBCBCC" d="M51.6-43.5L29.5-21.4V1.4c5.7,0,10.2,4.6,10.2,10.2c0,5.7-4.6,10.2-10.2,10.2v22.9l22.1,22.1h253.8
				l22.1-22.1V21.9c-5.7,0-10.2-4.6-10.2-10.2c0-5.7,4.6-10.2,10.2-10.2v-22.9l-22.1-22.1H51.6z"/>
			<path fill="#CACACB" d="M51.6-43.5L29.6-21.5V1.4c5.7,0,10.2,4.6,10.2,10.2c0,5.7-4.6,10.2-10.2,10.2v22.9l22.1,22.1h253.8
				l22.1-22.1V21.9c-5.7,0-10.2-4.6-10.2-10.2c0-5.7,4.6-10.2,10.2-10.2v-22.9l-22.1-22.1H51.6z"/>
			<path fill="#C9C9CA" d="M51.7-43.5L29.6-21.5V1.4c5.7,0,10.2,4.6,10.2,10.2c0,5.7-4.6,10.2-10.2,10.2v22.9l22.1,22.1h253.8
				l22.1-22.1V21.9c-5.7,0-10.2-4.6-10.2-10.2c0-5.7,4.6-10.2,10.2-10.2v-22.9l-22.1-22.1H51.7z"/>
			<path fill="#C8C8C9" d="M51.7-43.6L29.6-21.5V1.4c5.7,0,10.2,4.6,10.2,10.2c0,5.7-4.6,10.2-10.2,10.2v22.9l22.1,22.1h253.8
				l22.1-22.1V21.8c-5.7,0-10.2-4.6-10.2-10.2c0-5.7,4.6-10.2,10.2-10.2v-22.9l-22.1-22.1H51.7z"/>
			<path fill="#C7C7C9" d="M51.7-43.6L29.6-21.5V1.3c5.7,0,10.2,4.6,10.2,10.2c0,5.7-4.6,10.2-10.2,10.2v22.9l22.1,22.1h253.8
				l22.1-22.1V21.8c-5.7,0-10.2-4.6-10.2-10.2c0-5.7,4.6-10.2,10.2-10.2v-22.9l-22.1-22.1H51.7z"/>
			<path fill="#C6C6C8" d="M51.7-43.6L29.7-21.5V1.3c5.7,0,10.2,4.6,10.2,10.2c0,5.7-4.6,10.2-10.2,10.2v22.9l22.1,22.1h253.8
				l22.1-22.1V21.8c-5.7,0-10.2-4.6-10.2-10.2c0-5.7,4.6-10.2,10.2-10.2v-22.9l-22.1-22.1H51.7z"/>
			<path fill="#C5C5C7" d="M51.7-43.6L29.7-21.6V1.3c5.7,0,10.2,4.6,10.2,10.2c0,5.7-4.6,10.2-10.2,10.2v22.9l22.1,22.1h253.8
				l22.1-22.1V21.8c-5.7,0-10.2-4.6-10.2-10.2c0-5.7,4.6-10.2,10.2-10.2v-22.9l-22.1-22.1H51.7z"/>
			<path fill="#C4C4C6" d="M51.8-43.7L29.7-21.6V1.3c5.7,0,10.2,4.6,10.2,10.2c0,5.7-4.6,10.2-10.2,10.2v22.9l22.1,22.1h253.8
				l22.1-22.1V21.8c-5.7,0-10.2-4.6-10.2-10.2c0-5.7,4.6-10.2,10.2-10.2v-22.9l-22.1-22.1H51.8z"/>
			<path fill="#C3C3C5" d="M51.8-43.7L29.7-21.6V1.3C35.4,1.3,40,5.8,40,11.5c0,5.7-4.6,10.2-10.2,10.2v22.9l22.1,22.1h253.8
				l22.1-22.1V21.7c-5.7,0-10.2-4.6-10.2-10.2c0-5.7,4.6-10.2,10.2-10.2v-22.9l-22.1-22.1H51.8z"/>
			<path fill="#C2C2C4" d="M51.8-43.7L29.7-21.6V1.2C35.4,1.2,40,5.8,40,11.5c0,5.7-4.6,10.2-10.2,10.2v22.9l22.1,22.1h253.8
				l22.1-22.1V21.7c-5.7,0-10.2-4.6-10.2-10.2c0-5.7,4.6-10.2,10.2-10.2v-22.9l-22.1-22.1H51.8z"/>
			<path fill="#C1C2C3" d="M51.8-43.7L29.8-21.6V1.2C35.4,1.2,40,5.8,40,11.5c0,5.7-4.6,10.2-10.2,10.2v22.9l22.1,22.1h253.8
				l22.1-22.1V21.7c-5.7,0-10.2-4.6-10.2-10.2c0-5.7,4.6-10.2,10.2-10.2v-22.9l-22.1-22.1H51.8z"/>
			<path fill="#C0C1C2" d="M51.8-43.7L29.8-21.7V1.2C35.4,1.2,40,5.8,40,11.4c0,5.7-4.6,10.2-10.2,10.2v22.9l22.1,22.1h253.8
				l22.1-22.1V21.7c-5.7,0-10.2-4.6-10.2-10.2c0-5.7,4.6-10.2,10.2-10.2v-22.9l-22.1-22.1H51.8z"/>
			<path fill="#BFC0C1" d="M51.9-43.8L29.8-21.7V1.2C35.5,1.2,40,5.8,40,11.4c0,5.7-4.6,10.2-10.2,10.2v22.9l22.1,22.1h253.8
				l22.1-22.1V21.7c-5.7,0-10.2-4.6-10.2-10.2c0-5.7,4.6-10.2,10.2-10.2v-22.9l-22.1-22.1H51.9z"/>
			<path fill="#BEBFC0" d="M51.9-43.8L29.8-21.7V1.2c5.7,0,10.2,4.6,10.2,10.2c0,5.7-4.6,10.2-10.2,10.2v22.9l22.1,22.1h253.8
				l22.1-22.1V21.6c-5.7,0-10.2-4.6-10.2-10.2c0-5.7,4.6-10.2,10.2-10.2v-22.9l-22.1-22.1H51.9z"/>
			<path fill="#BDBEBF" d="M51.9-43.8L29.8-21.7V1.1c5.7,0,10.2,4.6,10.2,10.2c0,5.7-4.6,10.2-10.2,10.2v22.9l22.1,22.1h253.8
				l22.1-22.1V21.6c-5.7,0-10.2-4.6-10.2-10.2c0-5.7,4.6-10.2,10.2-10.2v-22.9l-22.1-22.1H51.9z"/>
			<path fill="#BCBDBE" d="M51.9-43.8L29.9-21.7V1.1c5.7,0,10.2,4.6,10.2,10.2c0,5.7-4.6,10.2-10.2,10.2v22.9l22.1,22.1h253.8
				l22.1-22.1V21.6c-5.7,0-10.2-4.6-10.2-10.2c0-5.7,4.6-10.2,10.2-10.2v-22.9l-22.1-22.1H51.9z"/>
			<path fill="#BBBCBD" d="M52-43.8L29.9-21.8V1.1c5.7,0,10.2,4.6,10.2,10.2c0,5.7-4.6,10.2-10.2,10.2v22.9L52,66.5h253.8l22.1-22.1
				V21.6c-5.7,0-10.2-4.6-10.2-10.2c0-5.7,4.6-10.2,10.2-10.2v-22.9l-22.1-22.1H52z"/>
			<path fill="#BABBBC" d="M52-43.9L29.9-21.8V1.1c5.7,0,10.2,4.6,10.2,10.2c0,5.7-4.6,10.2-10.2,10.2v22.9L52,66.5h253.8l22.1-22.1
				V21.6c-5.7,0-10.2-4.6-10.2-10.2c0-5.7,4.6-10.2,10.2-10.2v-22.9l-22.1-22.1H52z"/>
			<path fill="#B9BABB" d="M52-43.9L29.9-21.8V1c5.7,0,10.2,4.6,10.2,10.2c0,5.7-4.6,10.2-10.2,10.2v22.9L52,66.5h253.8l22.1-22.1
				V21.5c-5.7,0-10.2-4.6-10.2-10.2c0-5.7,4.6-10.2,10.2-10.2v-22.9l-22.1-22.1H52z"/>
			<path fill="#B8B9BA" d="M52-43.9L29.9-21.8V1c5.7,0,10.2,4.6,10.2,10.2c0,5.7-4.6,10.2-10.2,10.2v22.9L52,66.4h253.8l22.1-22.1
				V21.5c-5.7,0-10.2-4.6-10.2-10.2c0-5.7,4.6-10.2,10.2-10.2v-22.9l-22.1-22.1H52z"/>
			<path fill="#B7B8B9" d="M52-43.9L30-21.9V1c5.7,0,10.2,4.6,10.2,10.2c0,5.7-4.6,10.2-10.2,10.2v22.9L52,66.4h253.8l22.1-22.1
				V21.5c-5.7,0-10.2-4.6-10.2-10.2c0-5.7,4.6-10.2,10.2-10.2v-22.9l-22.1-22.1H52z"/>
			<path fill="#B6B7B8" d="M52.1-43.9L30-21.9V1c5.7,0,10.2,4.6,10.2,10.2c0,5.7-4.6,10.2-10.2,10.2v22.9l22.1,22.1h253.8l22.1-22.1
				V21.5c-5.7,0-10.2-4.6-10.2-10.2c0-5.7,4.6-10.2,10.2-10.2v-22.9l-22.1-22.1H52.1z"/>
			<path fill="#B5B6B7" d="M52.1-44L30-21.9V1c5.7,0,10.2,4.6,10.2,10.2c0,5.7-4.6,10.2-10.2,10.2v22.9l22.1,22.1h253.8l22.1-22.1
				V21.5c-5.7,0-10.2-4.6-10.2-10.2c0-5.7,4.6-10.2,10.2-10.2v-22.9L305.9-44H52.1z"/>
			<path fill="#B4B5B6" d="M52.1-44L30-21.9V0.9c5.7,0,10.2,4.6,10.2,10.2c0,5.7-4.6,10.2-10.2,10.2v22.9l22.1,22.1h253.8L328,44.3
				V21.4c-5.7,0-10.2-4.6-10.2-10.2c0-5.7,4.6-10.2,10.2-10.2v-22.9L305.9-44H52.1z"/>
			<path fill="#B3B4B5" d="M52.1-44L30-21.9V0.9c5.7,0,10.2,4.6,10.2,10.2c0,5.7-4.6,10.2-10.2,10.2v22.9l22.1,22.1h253.8L328,44.3
				V21.4c-5.7,0-10.2-4.6-10.2-10.2c0-5.7,4.6-10.2,10.2-10.2v-22.9L305.9-44H52.1z"/>
			<path fill="#B2B3B4" d="M52.1-44L30.1-22V0.9c5.7,0,10.2,4.6,10.2,10.2c0,5.7-4.6,10.2-10.2,10.2v22.9l22.1,22.1h253.8L328,44.2
				V21.4c-5.7,0-10.2-4.6-10.2-10.2c0-5.7,4.6-10.2,10.2-10.2V-22L305.9-44H52.1z"/>
			<path fill="#B1B2B4" d="M52.2-44L30.1-22V0.9c5.7,0,10.2,4.6,10.2,10.2c0,5.7-4.6,10.2-10.2,10.2v22.9l22.1,22.1H306L328,44.2
				V21.4c-5.7,0-10.2-4.6-10.2-10.2c0-5.7,4.6-10.2,10.2-10.2V-22L306-44H52.2z"/>
			<path fill="#B0B1B3" d="M52.2-44.1L30.1-22V0.9c5.7,0,10.2,4.6,10.2,10.2c0,5.7-4.6,10.2-10.2,10.2v22.9l22.1,22.1H306L328,44.2
				V21.3c-5.7,0-10.2-4.6-10.2-10.2c0-5.7,4.6-10.2,10.2-10.2V-22L306-44.1H52.2z"/>
			<path fill="#AFB0B2" d="M52.2-44.1L30.1-22V0.8c5.7,0,10.2,4.6,10.2,10.2c0,5.7-4.6,10.2-10.2,10.2v22.9l22.1,22.1H306l22.1-22.1
				V21.3c-5.7,0-10.2-4.6-10.2-10.2c0-5.7,4.6-10.2,10.2-10.2V-22L306-44.1H52.2z"/>
			<path fill="#AEAFB1" d="M52.2-44.1L30.2-22V0.8c5.7,0,10.2,4.6,10.2,10.2c0,5.7-4.6,10.2-10.2,10.2v22.9l22.1,22.1H306l22.1-22.1
				V21.3c-5.7,0-10.2-4.6-10.2-10.2c0-5.7,4.6-10.2,10.2-10.2V-22L306-44.1H52.2z"/>
			<path fill="#ADAEB0" d="M52.2-44.1L30.2-22.1V0.8c5.7,0,10.2,4.6,10.2,10.2c0,5.7-4.6,10.2-10.2,10.2v22.9l22.1,22.1H306
				l22.1-22.1V21.3c-5.7,0-10.2-4.6-10.2-10.2c0-5.7,4.6-10.2,10.2-10.2v-22.9L306-44.1H52.2z"/>
			<path fill="#ACADAF" d="M52.3-44.2L30.2-22.1V0.8c5.7,0,10.2,4.6,10.2,10.2c0,5.7-4.6,10.2-10.2,10.2v22.9l22.1,22.1h253.8
				l22.1-22.1V21.3c-5.7,0-10.2-4.6-10.2-10.2c0-5.7,4.6-10.2,10.2-10.2v-22.9l-22.1-22.1H52.3z"/>
			<path fill="#ABACAE" d="M52.3-44.2L30.2-22.1V0.8c5.7,0,10.2,4.6,10.2,10.2c0,5.7-4.6,10.2-10.2,10.2v22.9l22.1,22.1h253.8
				l22.1-22.1V21.2c-5.7,0-10.2-4.6-10.2-10.2c0-5.7,4.6-10.2,10.2-10.2v-22.9l-22.1-22.1H52.3z"/>
			<path fill="#AAABAD" d="M52.3-44.2L30.2-22.1V0.7c5.7,0,10.2,4.6,10.2,10.2c0,5.7-4.6,10.2-10.2,10.2v22.9l22.1,22.1h253.8
				l22.1-22.1V21.2c-5.7,0-10.2-4.6-10.2-10.2c0-5.7,4.6-10.2,10.2-10.2v-22.9l-22.1-22.1H52.3z"/>
			<path fill="#A9AAAC" d="M52.3-44.2L30.3-22.1V0.7c5.7,0,10.2,4.6,10.2,10.2c0,5.7-4.6,10.2-10.2,10.2v22.9l22.1,22.1h253.8
				l22.1-22.1V21.2c-5.7,0-10.2-4.6-10.2-10.2c0-5.7,4.6-10.2,10.2-10.2v-22.9l-22.1-22.1H52.3z"/>
			<path fill="#A8A9AB" d="M52.3-44.2L30.3-22.2V0.7c5.7,0,10.2,4.6,10.2,10.2c0,5.7-4.6,10.2-10.2,10.2V44l22.1,22.1h253.8
				L328.2,44V21.2c-5.7,0-10.2-4.6-10.2-10.2c0-5.7,4.6-10.2,10.2-10.2v-22.9l-22.1-22.1H52.3z"/>
			<path fill="#A7A8AA" d="M52.4-44.3L30.3-22.2V0.7c5.7,0,10.2,4.6,10.2,10.2c0,5.7-4.6,10.2-10.2,10.2V44l22.1,22.1h253.8
				L328.2,44V21.2c-5.7,0-10.2-4.6-10.2-10.2c0-5.7,4.6-10.2,10.2-10.2v-22.9l-22.1-22.1H52.4z"/>
			<path fill="#A6A7A9" d="M52.4-44.3L30.3-22.2V0.7c5.7,0,10.2,4.6,10.2,10.2c0,5.7-4.6,10.2-10.2,10.2V44l22.1,22.1h253.8
				L328.3,44V21.1c-5.7,0-10.2-4.6-10.2-10.2c0-5.7,4.6-10.2,10.2-10.2v-22.9l-22.1-22.1H52.4z"/>
			<path fill="#A5A6A8" d="M52.4-44.3L30.3-22.2V0.6c5.7,0,10.2,4.6,10.2,10.2c0,5.7-4.6,10.2-10.2,10.2V44L52.4,66h253.8L328.3,44
				V21.1c-5.7,0-10.2-4.6-10.2-10.2c0-5.7,4.6-10.2,10.2-10.2v-22.9l-22.1-22.1H52.4z"/>
			<path fill="#A4A5A7" d="M52.4-44.3L30.4-22.2V0.6c5.7,0,10.2,4.6,10.2,10.2c0,5.7-4.6,10.2-10.2,10.2V44L52.4,66h253.8L328.3,44
				V21.1c-5.7,0-10.2-4.6-10.2-10.2c0-5.7,4.6-10.2,10.2-10.2v-22.9l-22.1-22.1H52.4z"/>
			<path fill="#A3A4A6" d="M52.5-44.3L30.4-22.3V0.6c5.7,0,10.2,4.6,10.2,10.2c0,5.7-4.6,10.2-10.2,10.2v22.9L52.5,66h253.8
				l22.1-22.1V21.1c-5.7,0-10.2-4.6-10.2-10.2c0-5.7,4.6-10.2,10.2-10.2v-22.9l-22.1-22.1H52.5z"/>
			<path fill="#A2A3A5" d="M52.5-44.4L30.4-22.3V0.6c5.7,0,10.2,4.6,10.2,10.2c0,5.7-4.6,10.2-10.2,10.2v22.9L52.5,66h253.8
				l22.1-22.1V21.1c-5.7,0-10.2-4.6-10.2-10.2c0-5.7,4.6-10.2,10.2-10.2v-22.9l-22.1-22.1H52.5z"/>
			<path fill="#A1A2A4" d="M52.5-44.4L30.4-22.3V0.5c5.7,0,10.2,4.6,10.2,10.2c0,5.7-4.6,10.2-10.2,10.2v22.9L52.5,66h253.8
				l22.1-22.1V21c-5.7,0-10.2-4.6-10.2-10.2c0-5.7,4.6-10.2,10.2-10.2v-22.9l-22.1-22.1H52.5z"/>
			<path fill="#A0A1A3" d="M52.5-44.4L30.4-22.3V0.5c5.7,0,10.2,4.6,10.2,10.2c0,5.7-4.6,10.2-10.2,10.2v22.9l22.1,22.1h253.8
				l22.1-22.1V21c-5.7,0-10.2-4.6-10.2-10.2c0-5.7,4.6-10.2,10.2-10.2v-22.9l-22.1-22.1H52.5z"/>
			<path fill="#9FA0A2" d="M52.5-44.4L30.5-22.4V0.5c5.7,0,10.2,4.6,10.2,10.2c0,5.7-4.6,10.2-10.2,10.2v22.9l22.1,22.1h253.8
				l22.1-22.1V21c-5.7,0-10.2-4.6-10.2-10.2c0-5.7,4.6-10.2,10.2-10.2v-22.9l-22.1-22.1H52.5z"/>
			<path fill="#9E9FA1" d="M52.6-44.4L30.5-22.4V0.5c5.7,0,10.2,4.6,10.2,10.2c0,5.7-4.6,10.2-10.2,10.2v22.9l22.1,22.1h253.8
				l22.1-22.1V21c-5.7,0-10.2-4.6-10.2-10.2c0-5.7,4.6-10.2,10.2-10.2v-22.9l-22.1-22.1H52.6z"/>
			<path fill="#9D9EA0" d="M52.6-44.5L30.5-22.4V0.5c5.7,0,10.2,4.6,10.2,10.2c0,5.7-4.6,10.2-10.2,10.2v22.9l22.1,22.1h253.8
				l22.1-22.1V21c-5.7,0-10.2-4.6-10.2-10.2c0-5.7,4.6-10.2,10.2-10.2v-22.9l-22.1-22.1H52.6z"/>
			<path fill="#9C9D9F" d="M52.6-44.5L30.5-22.4V0.4c5.7,0,10.2,4.6,10.2,10.2c0,5.7-4.6,10.2-10.2,10.2v22.9l22.1,22.1h253.8
				l22.1-22.1V20.9c-5.7,0-10.2-4.6-10.2-10.2c0-5.7,4.6-10.2,10.2-10.2v-22.9l-22.1-22.1H52.6z"/>
			<path fill="#9B9C9E" d="M52.6-44.5L30.5-22.4V0.4c5.7,0,10.2,4.6,10.2,10.2c0,5.7-4.6,10.2-10.2,10.2v22.9l22.1,22.1h253.8
				l22.1-22.1V20.9c-5.7,0-10.2-4.6-10.2-10.2c0-5.7,4.6-10.2,10.2-10.2v-22.9l-22.1-22.1H52.6z"/>
			<path fill="#9A9B9E" d="M52.6-44.5L30.6-22.5V0.4c5.7,0,10.2,4.6,10.2,10.2c0,5.7-4.6,10.2-10.2,10.2v22.9l22.1,22.1h253.8
				l22.1-22.1V20.9c-5.7,0-10.2-4.6-10.2-10.2c0-5.7,4.6-10.2,10.2-10.2v-22.9l-22.1-22.1H52.6z"/>
			<path fill="#999A9D" d="M52.7-44.5L30.6-22.5V0.4c5.7,0,10.2,4.6,10.2,10.2c0,5.7-4.6,10.2-10.2,10.2v22.9l22.1,22.1h253.8
				l22.1-22.1V20.9c-5.7,0-10.2-4.6-10.2-10.2c0-5.7,4.6-10.2,10.2-10.2v-22.9l-22.1-22.1H52.7z"/>
			<path fill="#989A9C" d="M52.7-44.6L30.6-22.5V0.4c5.7,0,10.2,4.6,10.2,10.2c0,5.7-4.6,10.2-10.2,10.2v22.9l22.1,22.1h253.8
				l22.1-22.1V20.8c-5.7,0-10.2-4.6-10.2-10.2c0-5.7,4.6-10.2,10.2-10.2v-22.9l-22.1-22.1H52.7z"/>
			<path fill="#97999B" d="M52.7-44.6L30.6-22.5V0.3c5.7,0,10.2,4.6,10.2,10.2c0,5.7-4.6,10.2-10.2,10.2v22.9l22.1,22.1h253.8
				l22.1-22.1V20.8c-5.7,0-10.2-4.6-10.2-10.2c0-5.7,4.6-10.2,10.2-10.2v-22.9l-22.1-22.1H52.7z"/>
			<path fill="#96989A" d="M52.7-44.6L30.7-22.5V0.3c5.7,0,10.2,4.6,10.2,10.2c0,5.7-4.6,10.2-10.2,10.2v22.9l22.1,22.1h253.8
				l22.1-22.1V20.8c-5.7,0-10.2-4.6-10.2-10.2c0-5.7,4.6-10.2,10.2-10.2v-22.9l-22.1-22.1H52.7z"/>
			<path fill="#959799" d="M52.7-44.6L30.7-22.6V0.3c5.7,0,10.2,4.6,10.2,10.2c0,5.7-4.6,10.2-10.2,10.2v22.9l22.1,22.1h253.8
				l22.1-22.1V20.8c-5.7,0-10.2-4.6-10.2-10.2c0-5.7,4.6-10.2,10.2-10.2v-22.9l-22.1-22.1H52.7z"/>
			<path fill="#949698" d="M52.8-44.7L30.7-22.6V0.3c5.7,0,10.2,4.6,10.2,10.2c0,5.7-4.6,10.2-10.2,10.2v22.9l22.1,22.1h253.8
				l22.1-22.1V20.8c-5.7,0-10.2-4.6-10.2-10.2c0-5.7,4.6-10.2,10.2-10.2v-22.9l-22.1-22.1H52.8z"/>
			<path fill="#939597" d="M52.8-44.7L30.7-22.6V0.3C36.4,0.3,41,4.8,41,10.5c0,5.7-4.6,10.2-10.2,10.2v22.9l22.1,22.1h253.8
				l22.1-22.1V20.7c-5.7,0-10.2-4.6-10.2-10.2c0-5.7,4.6-10.2,10.2-10.2v-22.9l-22.1-22.1H52.8z"/>
			<path fill="#929496" d="M52.8-44.7L30.7-22.6V0.2C36.4,0.2,41,4.8,41,10.5c0,5.7-4.6,10.2-10.2,10.2v22.9l22.1,22.1h253.8
				l22.1-22.1V20.7c-5.7,0-10.2-4.6-10.2-10.2c0-5.7,4.6-10.2,10.2-10.2v-22.9l-22.1-22.1H52.8z"/>
			<path fill="#919395" d="M52.8-44.7L30.8-22.6V0.2C36.4,0.2,41,4.8,41,10.5c0,5.7-4.6,10.2-10.2,10.2v22.9l22.1,22.1h253.8
				l22.1-22.1V20.7c-5.7,0-10.2-4.6-10.2-10.2c0-5.7,4.6-10.2,10.2-10.2v-22.9l-22.1-22.1H52.8z"/>
			<path fill="#909294" d="M52.8-44.7L30.8-22.7V0.2C36.4,0.2,41,4.8,41,10.4c0,5.7-4.6,10.2-10.2,10.2v22.9l22.1,22.1h253.8
				l22.1-22.1V20.7c-5.7,0-10.2-4.6-10.2-10.2c0-5.7,4.6-10.2,10.2-10.2v-22.9l-22.1-22.1H52.8z"/>
			<path fill="#8F9193" d="M52.9-44.8L30.8-22.7V0.2C36.5,0.2,41,4.8,41,10.4c0,5.7-4.6,10.2-10.2,10.2v22.9l22.1,22.1h253.8
				l22.1-22.1V20.7c-5.7,0-10.2-4.6-10.2-10.2c0-5.7,4.6-10.2,10.2-10.2v-22.9l-22.1-22.1H52.9z"/>
			<path fill="#8E9092" d="M52.9-44.8L30.8-22.7V0.2c5.7,0,10.2,4.6,10.2,10.2c0,5.7-4.6,10.2-10.2,10.2v22.9l22.1,22.1h253.8
				l22.1-22.1V20.6c-5.7,0-10.2-4.6-10.2-10.2c0-5.7,4.6-10.2,10.2-10.2v-22.9l-22.1-22.1H52.9z"/>
			<path fill="#8D8F91" d="M52.9-44.8L30.8-22.7V0.1c5.7,0,10.2,4.6,10.2,10.2c0,5.7-4.6,10.2-10.2,10.2v22.9l22.1,22.1h253.8
				l22.1-22.1V20.6c-5.7,0-10.2-4.6-10.2-10.2c0-5.7,4.6-10.2,10.2-10.2v-22.9l-22.1-22.1H52.9z"/>
			<path fill="#8C8E90" d="M52.9-44.8L30.9-22.7V0.1c5.7,0,10.2,4.6,10.2,10.2c0,5.7-4.6,10.2-10.2,10.2v22.9l22.1,22.1h253.8
				l22.1-22.1V20.6c-5.7,0-10.2-4.6-10.2-10.2c0-5.7,4.6-10.2,10.2-10.2v-22.9l-22.1-22.1H52.9z"/>
			<path fill="#8B8D8F" d="M53-44.8L30.9-22.8V0.1c5.7,0,10.2,4.6,10.2,10.2c0,5.7-4.6,10.2-10.2,10.2v22.9l22.1,22.1h253.8
				l22.1-22.1V20.6c-5.7,0-10.2-4.6-10.2-10.2c0-5.7,4.6-10.2,10.2-10.2v-22.9l-22.1-22.1H53z"/>
			<path fill="#8A8C8E" d="M53-44.9L30.9-22.8V0.1c5.7,0,10.2,4.6,10.2,10.2c0,5.7-4.6,10.2-10.2,10.2v22.9L53,65.5h253.8l22.1-22.1
				V20.6c-5.7,0-10.2-4.6-10.2-10.2c0-5.7,4.6-10.2,10.2-10.2v-22.9l-22.1-22.1H53z"/>
			<path fill="#898B8D" d="M53-44.9L30.9-22.8V0c5.7,0,10.2,4.6,10.2,10.2c0,5.7-4.6,10.2-10.2,10.2v22.9L53,65.5h253.8l22.1-22.1
				V20.5c-5.7,0-10.2-4.6-10.2-10.2c0-5.7,4.6-10.2,10.2-10.2v-22.9l-22.1-22.1H53z"/>
			<path fill="#888A8C" d="M53-44.9L30.9-22.8V0c5.7,0,10.2,4.6,10.2,10.2c0,5.7-4.6,10.2-10.2,10.2v22.9L53,65.4h253.8l22.1-22.1
				V20.5c-5.7,0-10.2-4.6-10.2-10.2c0-5.7,4.6-10.2,10.2-10.2v-22.9l-22.1-22.1H53z"/>
			<path fill="#87898B" d="M53-44.9L31-22.9V0c5.7,0,10.2,4.6,10.2,10.2c0,5.7-4.6,10.2-10.2,10.2v22.9L53,65.4h253.8l22.1-22.1
				V20.5c-5.7,0-10.2-4.6-10.2-10.2c0-5.7,4.6-10.2,10.2-10.2v-22.9l-22.1-22.1H53z"/>
			<path fill="#86888A" d="M53.1-44.9L31-22.9V0c5.7,0,10.2,4.6,10.2,10.2c0,5.7-4.6,10.2-10.2,10.2v22.9l22.1,22.1h253.8l22.1-22.1
				V20.5c-5.7,0-10.2-4.6-10.2-10.2c0-5.7,4.6-10.2,10.2-10.2v-22.9l-22.1-22.1H53.1z"/>
			<path fill="#858789" d="M53.1-45L31-22.9V0c5.7,0,10.2,4.6,10.2,10.2c0,5.7-4.6,10.2-10.2,10.2v22.9l22.1,22.1h253.8l22.1-22.1
				V20.5c-5.7,0-10.2-4.6-10.2-10.2c0-5.7,4.6-10.2,10.2-10.2v-22.9L306.9-45H53.1z"/>
			<path fill="#848689" d="M53.1-45L31-22.9v22.9c5.7,0,10.2,4.6,10.2,10.2c0,5.7-4.6,10.2-10.2,10.2v22.9l22.1,22.1h253.8L329,43.3
				V20.4c-5.7,0-10.2-4.6-10.2-10.2c0-5.7,4.6-10.2,10.2-10.2v-22.9L306.9-45H53.1z"/>
			<path fill="#838588" d="M53.1-45L31-22.9v22.9c5.7,0,10.2,4.6,10.2,10.2c0,5.7-4.6,10.2-10.2,10.2v22.9l22.1,22.1h253.8L329,43.3
				V20.4c-5.7,0-10.2-4.6-10.2-10.2c0-5.7,4.6-10.2,10.2-10.2v-22.9L306.9-45H53.1z"/>
			<path fill="#828487" d="M53.1-45L31.1-23v22.9c5.7,0,10.2,4.6,10.2,10.2c0,5.7-4.6,10.2-10.2,10.2v22.9l22.1,22.1h253.8L329,43.2
				V20.4c-5.7,0-10.2-4.6-10.2-10.2c0-5.7,4.6-10.2,10.2-10.2V-23L306.9-45H53.1z"/>
			<path fill="#818386" d="M53.2-45L31.1-23v22.9c5.7,0,10.2,4.6,10.2,10.2c0,5.7-4.6,10.2-10.2,10.2v22.9l22.1,22.1H307L329,43.2
				V20.4c-5.7,0-10.2-4.6-10.2-10.2c0-5.7,4.6-10.2,10.2-10.2V-23L307-45H53.2z"/>
			<path fill="#666666" d="M53.2-45.1L31.1-23v22.9c5.7,0,10.2,4.6,10.2,10.2c0,5.7-4.6,10.2-10.2,10.2v22.9l22.1,22.1H307L329,43.2
				V20.3c-5.7,0-10.2-4.6-10.2-10.2c0-5.7,4.6-10.2,10.2-10.2V-23L307-45.1H53.2z"/>
		</g>
		<path display="inline" fill="#D5D5D5" d="M53.2-45.1L31.1-23v22.9c5.7,0,10.2,4.6,10.2,10.2c0,5.7-4.6,10.2-10.2,10.2v22.9
			l22.1,22.1H307L329,43.2V20.3c-5.7,0-10.2-4.6-10.2-10.2c0-5.7,4.6-10.2,10.2-10.2V-23L307-45.1H53.2z"/>
		<g display="inline">
			<polygon fill="#195176" points="54,41.9 54,39.3 308.5,39.3 308.5,41.9 54,41.9 			"/>
		</g>
		<g display="inline">
			<polygon fill="#195176" points="54,48.5 54,45.9 308.5,45.9 308.5,48.5 54,48.5 			"/>
		</g>
		<g display="inline">
			<polygon fill="#195176" points="54,55.1 54,52.5 308.5,52.5 308.5,55.1 54,55.1 			"/>
		</g>
		<polygon display="inline" fill="#009245" points="285.5,22.1 289.2,14.7 297.4,13.5 291.5,7.7 292.9,-0.5 285.5,3.3 278.2,-0.5 
			279.6,7.7 273.7,13.5 281.9,14.7 		"/>
		<polygon display="inline" fill="#009245" points="77.2,22.1 80.9,14.7 89.1,13.5 83.2,7.7 84.6,-0.5 77.2,3.3 69.9,-0.5 71.3,7.7 
			65.3,13.5 73.6,14.7 		"/>
		<g display="inline">
			<path fill="#195176" d="M112.8,16.3H99.6l-2.2,4.8h-5.1l11.3-25.2h5.2l11.3,25.2h-5.2L112.8,16.3z M106.2,1.1l-4.7,10.7h9.4
				L106.2,1.1z"/>
			<path fill="#195176" d="M133.5,8c-1.3-1.2-2.7-1.6-4.4-1.6c-2.1,0-3.2,0.6-3.2,1.8c0,1.2,1,1.8,3.3,1.9c3.3,0.2,7.6,1,7.6,5.7
				c0,3.1-2.6,5.8-7.6,5.8c-2.8,0-5.6-0.5-8.2-3.2l2.2-3.1c1.3,1.4,4.1,2.4,6.1,2.5c1.7,0,3.2-0.8,3.2-2.1c0-1.2-1-1.7-3.5-1.9
				c-3.3-0.3-7.3-1.5-7.3-5.5c0-4.1,4.2-5.5,7.5-5.5c2.8,0,4.9,0.5,6.9,2.3L133.5,8z"/>
			<path fill="#195176" d="M143.9-4.1v14.5l6-7.1h5.3v0.3l-7.2,8.1l8.2,9.1v0.3h-5.3l-7-8v8h-4.4V-4.1H143.9z"/>
			<path fill="#195176" d="M171.2,21.1v-9.3c0-2.7-1.5-4.8-4.3-4.8c-2.7,0-4.5,2.3-4.5,5v9.1H158V3.3h3.9l0.3,2.4
				c1.8-1.8,3.6-2.7,5.8-2.7c4.2,0,7.5,3.1,7.5,8.7v9.3H171.2z"/>
			<path fill="#009245" d="M195.3,1.9c-0.9-1.4-3.2-2.8-6-2.8c-3.5,0-5.2,1.5-5.2,3.3c0,2.2,2.6,2.8,5.6,3.2c5.3,0.6,10.2,2,10.2,8
				c0,5.6-5,8-10.6,8c-5.1,0-9.1-1.6-11-6.2l4-2.1c1.1,2.8,4,4,7.1,4c3,0,5.8-1,5.8-3.8c0-2.4-2.5-3.3-5.8-3.7
				c-5.1-0.6-9.9-2-9.9-7.6c0-5.2,5.1-7.3,9.8-7.3c3.9,0,8,1.1,9.9,5L195.3,1.9z"/>
			<path fill="#009245" d="M221.6,12.2c0,5.1-3.5,9.3-9.3,9.3c-5.8,0-9.2-4.1-9.2-9.3c0-5.1,3.5-9.3,9.2-9.3
				C217.9,2.9,221.6,7.1,221.6,12.2z M207.5,12.2c0,2.7,1.6,5.2,4.8,5.2c3.2,0,4.8-2.5,4.8-5.2c0-2.7-1.9-5.3-4.8-5.3
				C209.1,6.9,207.5,9.5,207.5,12.2z"/>
			<path fill="#009245" d="M228.9-4.1v25.2h-4.4V-4.1H228.9z"/>
			<path fill="#009245" d="M251.2,3.3l-7.6,17.9h-4.8l-7.6-17.9h4.8l2.4,5.9l2.7,7.5l2.7-7.4l2.4-5.9H251.2z"/>
			<path fill="#009245" d="M257.1,13.7c0.3,2.2,2.2,3.8,5.3,3.8c1.6,0,3.7-0.6,4.8-1.7l2.8,2.8c-1.9,1.9-4.9,2.9-7.6,2.9
				c-6.1,0-9.8-3.8-9.8-9.5c0-5.4,3.7-9.3,9.4-9.3c5.9,0,9.7,3.7,9,11H257.1z M266.7,10.1c-0.3-2.3-2.1-3.5-4.6-3.5
				c-2.4,0-4.3,1.2-5,3.5H266.7z"/>
		</g>
	</g>
	<g>
		<path fill="#7AC943" d="M30.7,56.7L19,45.1c-0.5-0.5-0.5-1.4,0-1.9l24.2-24.2c0.5-0.5,1.4-0.5,1.9,0l11.6,11.6
			c0.5,0.5,0.5,1.4,0,1.9L32.6,56.7C32.1,57.3,31.2,57.3,30.7,56.7z"/>
		<path fill="#009245" d="M55.8,20.6c-3.1-3.1-2.9-8.4,0-11.3L46.5,0L0,46.5l9,9c2.9-2.9,8.2-3.1,11.3,0c3.1,3.1,2.9,8.4,0,11.3
			l8.8,8.8l46.5-46.5l-8.5-8.5C64.2,23.5,58.9,23.7,55.8,20.6z M61.1,30.1c0.8,0.8,0.8,2.1,0,2.9L33,61.1c-0.8,0.8-2.1,0.8-2.9,0
			L14.5,45.6c-0.8-0.8-0.8-2.1,0-2.9l28.1-28.1c0.8-0.8,2.1-0.8,2.9,0L61.1,30.1z"/>
	</g>
</g>
</svg>
