<?xml version="1.0" encoding="utf-8"?>
<!-- Generator: Adobe Illustrator 18.0.0, SVG Export Plug-In . SVG Version: 6.00 Build 0)  -->
<!DOCTYPE svg PUBLIC "-//W3C//DTD SVG 1.1//EN" "http://www.w3.org/Graphics/SVG/1.1/DTD/svg11.dtd">
<svg version="1.1" xmlns="http://www.w3.org/2000/svg" xmlns:xlink="http://www.w3.org/1999/xlink" x="0px" y="0px"
	 viewBox="0 0 337.3 205.3" enable-background="new 0 0 337.3 205.3" xml:space="preserve">
<g id="Layer_2" display="none">
</g>
<g id="Layer_1">
	<g display="none">
		<g display="inline">
			<path fill="#63A331" d="M55.1,181.6H33.8l-3.5,7.7H22l18.3-40.8h8.4L67,189.3h-8.4L55.1,181.6z M44.5,157.1l-7.6,17.4H52
				L44.5,157.1z"/>
			<path fill="#63A331" d="M95,158.3c-1.4-2.3-5.2-4.5-9.7-4.5c-5.7,0-8.5,2.4-8.5,5.4c0,3.6,4.2,4.5,9.1,5.1
				c8.5,1,16.4,3.3,16.4,13c0,9.1-8,13-17.1,13c-8.3,0-14.7-2.6-17.8-10l6.4-3.3c1.8,4.5,6.5,6.5,11.5,6.5c4.8,0,9.4-1.7,9.4-6.1
				c0-3.8-4-5.4-9.4-6c-8.3-1-16-3.2-16-12.4c0-8.4,8.3-11.8,15.8-11.9c6.4,0,12.9,1.8,16,8.1L95,158.3z"/>
			<path fill="#63A331" d="M141.1,148.7L123,168.3l19.6,20.6v0.5h-9.5L116,171.2v18.1h-7.7v-40.8h7.7v17.3l15.5-17.3h9.6V148.7z"/>
			<path fill="#63A331" d="M173.3,148.4h7.7v40.9h-4.8v0.1l-21.5-27.6v27.5h-7.7v-40.8h6.2l20,25.3V148.4z"/>
			<path fill="#195176" d="M215.4,156.4c-3-4.8-7.8-5.5-12.4-5.5c-4.8,0-12.4,1.7-12.4,8.3c0,5.2,5.6,6.4,12.5,7.7
				c7.9,1.5,16,2.9,16,11.7c-0.1,9.2-9.3,11.4-16.1,11.4c-6.4,0-13.6-2.6-16.7-8.9l2.8-1.4c2.5,5,8.9,7.4,13.9,7.4s13-1.4,13-8.6
				c0.1-6.1-6.7-7.5-13.4-8.7c-7.5-1.5-15.1-3-15.1-10.5c-0.2-8.6,8.8-11.3,15.5-11.3c5.8,0,10.9,0.9,14.9,6.9L215.4,156.4z"/>
			<path fill="#195176" d="M265.2,169c-0.1,10.7-6.9,21-20.6,21c-13.7,0-20.6-10.4-20.6-21.2c0-11,6.8-21,20.6-21
				S265.3,157.9,265.2,169z M227.2,168.9c0.1,9.2,5.9,18.2,17.5,18.2c11.7,0,17.5-9,17.5-18.2c0-9.4-5.8-18.1-17.5-18.1
				S227.1,159.3,227.2,168.9z"/>
			<path fill="#195176" d="M275.8,148.5v37.8h23v3h-26.1v-40.8H275.8z"/>
			<path fill="#195176" d="M332.6,148.5l-16.8,40.9h-3.4l-16.8-40.9h3.4l15.1,37.3l15.1-37.3H332.6z"/>
		</g>
		<path display="inline" fill="#195176" d="M233.5,66.6V39.3h-27.3v-9h-23.7v9h-27.3v27.3h-9v23.7h9v27.3h27.3v9h23.7v-9h27.3V90.2
			h9V66.6H233.5z M206.2,45h21.5v21.5h-8.9v9h-11c-1.1-5.3-5.3-9.5-10.6-10.6v-11h9V45z M201.5,78.4c0,3.9-3.2,7.1-7.1,7.1
			c-3.9,0-7.1-3.2-7.1-7.1c0-3.9,3.2-7.1,7.1-7.1C198.3,71.3,201.5,74.5,201.5,78.4z M188.5,36.2h11.8V48h-11.8V36.2z M161,45h21.6
			v8.9h9v11c-5.3,1.1-9.5,5.3-10.6,10.6h-11v-9H161V45z M152.1,84.3V72.5H164v11.8H152.1z M182.6,111.8H161V90.2h8.9v-9h11
			c1.1,5.3,5.3,9.4,10.6,10.6v11h-9V111.8z M200.3,120.6h-11.8v-11.9h11.8V120.6z M227.8,111.8h-21.5v-8.9h-9v-11
			c5.3-1.1,9.4-5.3,10.6-10.6h11v9h8.9V111.8z M236.6,84.3h-11.9V72.5h11.9V84.3z"/>
	</g>
	<g display="none">
		<g display="inline">
			<g>
				<path fill="#63A331" d="M55.1,181.6H33.8l-3.5,7.7H22l18.3-40.8h8.4L67,189.3h-8.4L55.1,181.6z M44.5,157.1l-7.6,17.4H52
					L44.5,157.1z"/>
				<path fill="#63A331" d="M95,158.3c-1.4-2.3-5.2-4.5-9.7-4.5c-5.7,0-8.5,2.4-8.5,5.4c0,3.6,4.2,4.5,9.1,5.1
					c8.5,1,16.4,3.3,16.4,13c0,9.1-8,13-17.1,13c-8.3,0-14.7-2.6-17.8-10l6.4-3.3c1.8,4.5,6.5,6.5,11.5,6.5c4.8,0,9.4-1.7,9.4-6.1
					c0-3.8-4-5.4-9.4-6c-8.3-1-16-3.2-16-12.4c0-8.4,8.3-11.8,15.8-11.9c6.4,0,12.9,1.8,16,8.1L95,158.3z"/>
				<path fill="#63A331" d="M141.1,148.7L123,168.3l19.6,20.6v0.5h-9.5L116,171.2v18.1h-7.7v-40.8h7.7v17.3l15.5-17.3h9.6V148.7z"/>
				<path fill="#63A331" d="M173.3,148.4h7.7v40.9h-4.8v0.1l-21.5-27.6v27.5h-7.7v-40.8h6.2l20,25.3V148.4z"/>
				<path fill="#195176" d="M215.4,156.4c-3-4.8-7.8-5.5-12.4-5.5c-4.8,0-12.4,1.7-12.4,8.3c0,5.2,5.6,6.4,12.5,7.7
					c7.9,1.5,16,2.9,16,11.7c-0.1,9.2-9.3,11.4-16.1,11.4c-6.4,0-13.6-2.6-16.7-8.9l2.8-1.4c2.5,5,8.9,7.4,13.9,7.4s13-1.4,13-8.6
					c0.1-6.1-6.7-7.5-13.4-8.7c-7.5-1.5-15.1-3-15.1-10.5c-0.2-8.6,8.8-11.3,15.5-11.3c5.8,0,10.9,0.9,14.9,6.9L215.4,156.4z"/>
				<path fill="#195176" d="M265.2,169c-0.1,10.7-6.9,21-20.6,21c-13.7,0-20.6-10.4-20.6-21.2c0-11,6.8-21,20.6-21
					S265.3,157.9,265.2,169z M227.2,168.9c0.1,9.2,5.9,18.2,17.5,18.2c11.7,0,17.5-9,17.5-18.2c0-9.4-5.8-18.1-17.5-18.1
					S227.1,159.3,227.2,168.9z"/>
				<path fill="#195176" d="M275.8,148.5v37.8h23v3h-26.1v-40.8H275.8z"/>
				<path fill="#195176" d="M332.6,148.5l-16.8,40.9h-3.4l-16.8-40.9h3.4l15.1,37.3l15.1-37.3H332.6z"/>
			</g>
			<g>
				<path fill="#195176" d="M244.2,66.3c-8.2-24.2-34.6-37.2-58.8-28.9c-0.5,0.2-0.9,0.3-1.3,0.5l2.6,8.3c24.1-8,50.3,4.9,58.5,29
					c0.7,1.9,1.2,3.9,1.6,5.8C246.7,76.2,245.9,71.2,244.2,66.3z"/>
				<path fill="#195176" d="M153.5,44.9c-16.9,19.3-14.9,48.5,4.3,65.4c0.4,0.3,0.7,0.6,1.1,0.9l5.9-6.4c-19-16.9-20.8-46-4.1-65.1
					c1.3-1.5,2.8-3,4.3-4.3C160.9,37.8,157,41,153.5,44.9z"/>
				<g>
					<path fill="#63A331" d="M177,69.5c-0.8,1.2-1.6,2.5-2.2,3.8c-0.9-0.5-1.8-1.1-2.7-1.6c0.7-1.5,1.6-2.9,2.5-4.2
						C175.4,68.2,176.2,68.9,177,69.5z"/>
					<path fill="#63A331" d="M187.3,60c-1.7,0.8-3.4,1.8-4.9,3c-0.8-1.1-1.6-2.3-2.4-3.5c1.8-1.3,3.7-2.4,5.7-3.3
						C186.2,57.5,186.8,58.8,187.3,60z"/>
					<path fill="#63A331" d="M200.8,56.4c-2.4,0-4.9,0.3-7.3,0.8c-0.3-1.7-0.7-3.5-0.9-5.2c2.8-0.6,5.7-0.9,8.6-0.9
						C201.1,52.8,200.9,54.6,200.8,56.4z"/>
					<path fill="#63A331" d="M214.6,58.7c-2.6-1.3-5.5-2.2-8.5-2.6c0.5-2.1,1-4.2,1.6-6.3c3.6,0.6,7,1.7,10.2,3.3
						C216.8,55,215.7,56.8,214.6,58.7z"/>
					<path fill="#63A331" d="M225.7,67.3c-2-3-4.6-5.5-7.6-7.4c1.6-2,3.2-4.1,4.8-6c3.7,2.5,6.9,5.6,9.4,9.5
						C230.1,64.6,227.9,65.9,225.7,67.3z"/>
					<path fill="#63A331" d="M231.4,82.3c-0.4-5.2-1.7-9.7-3.9-13.5c2.6-1.4,5.2-2.7,7.9-3.9c2.7,5,4.3,10.9,4.7,17.8
						C237.2,82.5,234.3,82.4,231.4,82.3z"/>
				</g>
				<g>
					<path fill="#63A331" d="M189.9,101.5c1.4,0.1,2.9,0.1,4.4,0c0,1,0,2.1,0,3.1c-1.7,0.1-3.3,0.1-4.9-0.1
						C189.6,103.6,189.8,102.5,189.9,101.5z"/>
					<path fill="#63A331" d="M176.5,97.3c1.6,1.1,3.3,2,5,2.8c-0.6,1.3-1.2,2.6-1.8,3.8c-2-0.9-3.9-2-5.7-3.2
						C174.9,99.6,175.7,98.4,176.5,97.3z"/>
					<path fill="#63A331" d="M166.6,87.4c1.2,2.1,2.7,4.1,4.4,5.9c-1.3,1.2-2.7,2.3-4.1,3.4c-2-2.1-3.7-4.5-5.1-7
						C163.4,89,165,88.2,166.6,87.4z"/>
					<path fill="#63A331" d="M161.8,74.3c0.2,2.9,0.9,5.8,2,8.6c-2.1,0.6-4.2,1.2-6.3,1.8c-1.3-3.4-2-7-2.3-10.5
						C157.4,74.3,159.6,74.3,161.8,74.3z"/>
					<path fill="#63A331" d="M163.7,60.4c-1.6,3.3-2.4,6.7-2.6,10.2c-2.5-0.3-5.1-0.7-7.6-1.2c0.3-4.4,1.5-8.7,3.5-12.8
						C159.1,58,161.4,59.2,163.7,60.4z"/>
					<path fill="#63A331" d="M173.8,48c-4.3,2.9-7.5,6.3-9.8,10.1c-2.5-1.6-4.9-3.2-7.3-4.9c3-4.8,7.3-9.2,13.1-12.9
						C171.1,42.9,172.4,45.5,173.8,48z"/>
				</g>
				<g>
					<path fill="#63A331" d="M211.2,74.3c-0.6-1.3-1.3-2.6-2.2-3.8c0.9-0.5,1.8-1,2.7-1.5c0.9,1.4,1.7,2.8,2.4,4.2
						C213.1,73.6,212.1,73.9,211.2,74.3z"/>
					<path fill="#63A331" d="M214.2,88c0.2-1.9,0.1-3.8-0.1-5.8c1.4-0.1,2.8-0.3,4.2-0.4c0.2,2.2,0.2,4.4,0.1,6.6
						C217,88.3,215.6,88.2,214.2,88z"/>
					<path fill="#63A331" d="M210.6,101.5c1.2-2.1,2.2-4.4,2.9-6.7c1.7,0.6,3.3,1.2,5,1.8c-0.9,2.8-2.1,5.4-3.5,7.9
						C213.6,103.5,212.1,102.5,210.6,101.5z"/>
					<path fill="#63A331" d="M201.7,112.3c2.4-1.7,4.6-3.7,6.5-6c1.6,1.5,3.1,3,4.6,4.5c-2.3,2.8-5,5.2-8,7.2
						C203.8,116.1,202.8,114.2,201.7,112.3z"/>
					<path fill="#63A331" d="M188.7,117.6c3.6-0.3,7-1.3,10.2-2.9c1,2.4,1.9,4.8,2.8,7.2c-4,1.9-8.3,3.1-12.9,3.4
						C188.8,122.8,188.8,120.2,188.7,117.6z"/>
					<path fill="#63A331" d="M172.9,115c4.7,2.3,9.3,3.4,13.6,3.4c-0.1,2.9-0.3,5.9-0.6,8.8c-5.7-0.2-11.6-1.7-17.8-4.9
						C169.8,119.9,171.4,117.5,172.9,115z"/>
				</g>
				<path fill="#195176" d="M180.3,134.1c25.1,5,49.5-11.4,54.5-36.5c0.1-0.5,0.1-0.9,0.2-1.4l-8.5-1.9
					c-5.1,24.9-29.4,41.1-54.4,36.1c-2-0.4-3.9-0.9-5.8-1.6C170.5,131.3,175.2,133.1,180.3,134.1z"/>
			</g>
		</g>
	</g>
	<g display="none">
		<g display="inline">
			<g>
				<polygon fill="#195176" points="174.3,65 215.6,129.7 193.6,129.7 174.3,99.5 155.1,129.7 133.1,129.7 				"/>
				<polygon fill="#8BC53F" points="174.3,107.7 188.3,129.7 160.4,129.7 				"/>
			</g>
			<text transform="matrix(1 0 0 1 11.6682 178.8012)"><tspan x="0" y="0" fill="#195176" font-family="'NeuropoliticalRg-Regular'" font-size="47.1293">Askn</tspan><tspan x="95.8" y="0" fill="#8BC53F" font-family="'NeuropoliticalRg-Regular'" font-size="47.1293">Solve</tspan></text>
		</g>
	</g>
	<path fill="#7AC943" d="M52,177.1H29.6l-3.7,8.1h-8.8l19.2-42.8h8.8l19.2,42.8h-8.8L52,177.1z M40.8,151.3l-8,18.2h15.9L40.8,151.3
		z"/>
	<path fill="#7AC943" d="M87.2,163c-2.1-2-4.6-2.7-7.5-2.7c-3.5,0-5.5,1.1-5.5,3c0,2,1.8,3.1,5.6,3.3c5.7,0.4,12.9,1.7,12.9,9.7
		c0,5.3-4.3,9.9-13,9.9c-4.8,0-9.5-0.8-14-5.4l3.7-5.3c2.1,2.4,7,4.2,10.4,4.2c2.8,0.1,5.4-1.4,5.4-3.6c0-2.1-1.7-2.9-6-3.2
		c-5.7-0.4-12.5-2.5-12.5-9.4c0-7,7.2-9.4,12.7-9.4c4.7,0,8.3,0.9,11.7,4L87.2,163z"/>
	<path fill="#7AC943" d="M104.8,142.4v24.7L115,155h8.9v0.4l-12.3,13.8l14,15.4v0.6h-9l-11.8-13.6v13.6h-7.5v-42.8H104.8z"/>
	<path fill="#7AC943" d="M151.2,185.1v-15.8c0-4.6-2.5-8.1-7.3-8.1c-4.6,0-7.7,3.9-7.7,8.4v15.4h-7.4v-30.2h6.7l0.5,4.1
		c3.1-3,6.1-4.5,9.9-4.5c7.1,0,12.8,5.3,12.8,14.8v15.8H151.2z"/>
	<path fill="#009245" d="M192.1,152.7c-1.5-2.4-5.5-4.8-10.2-4.8c-6,0-8.9,2.5-8.9,5.7c0,3.7,4.4,4.8,9.5,5.4
		c8.9,1.1,17.3,3.4,17.3,13.6c0,9.5-8.4,13.6-18,13.6c-8.8,0-15.5-2.7-18.7-10.5l6.7-3.5c1.9,4.7,6.9,6.8,12.1,6.8
		c5.1,0,9.9-1.8,9.9-6.4c0-4-4.2-5.7-9.9-6.3c-8.8-1-16.8-3.4-16.8-13c0-8.8,8.7-12.4,16.6-12.5c6.7,0,13.6,1.9,16.8,8.5
		L192.1,152.7z"/>
	<path fill="#009245" d="M236.8,170.1c0,8.7-5.9,15.7-15.7,15.7c-9.8,0-15.7-7-15.7-15.7c0-8.6,6-15.7,15.6-15.7
		C230.6,154.4,236.8,161.5,236.8,170.1z M212.9,170.1c0,4.6,2.8,8.9,8.2,8.9c5.4,0,8.2-4.3,8.2-8.9c0-4.5-3.2-8.9-8.2-8.9
		C215.7,161.2,212.9,165.6,212.9,170.1z"/>
	<path fill="#009245" d="M249.3,142.4v42.8h-7.4v-42.8H249.3z"/>
	<path fill="#009245" d="M287.2,154.9l-12.9,30.4h-8.1l-12.9-30.4h8.1l4.2,10l4.7,12.7l4.6-12.6l4.2-10.1H287.2z"/>
	<path fill="#009245" d="M297.1,172.7c0.5,3.7,3.7,6.4,9,6.4c2.8,0,6.4-1,8.1-2.8l4.8,4.7c-3.2,3.3-8.4,4.9-13,4.9
		c-10.4,0-16.6-6.4-16.6-16.1c0-9.2,6.2-15.8,16-15.8c10.1,0,16.4,6.2,15.2,18.7H297.1z M313.5,166.5c-0.5-3.9-3.5-5.9-7.8-5.9
		c-4,0-7.3,2-8.4,5.9H313.5z"/>
	<g display="none">
		<g display="inline">
			<path fill="#FFFFFF" d="M33.5,48.2L11.4,70.3v22.9c5.7,0,10.2,4.6,10.2,10.2c0,5.7-4.6,10.2-10.2,10.2v22.9l22.1,22.1h253.8
				l22.1-22.1v-22.9c-5.7,0-10.2-4.6-10.2-10.2c0-5.7,4.6-10.2,10.2-10.2V70.3l-22.1-22.1H33.5z"/>
			<path fill="#FEFEFE" d="M33.5,48.2L11.5,70.3v22.9c5.7,0,10.2,4.6,10.2,10.2c0,5.7-4.6,10.2-10.2,10.2v22.9l22.1,22.1h253.8
				l22.1-22.1v-22.9c-5.7,0-10.2-4.6-10.2-10.2c0-5.7,4.6-10.2,10.2-10.2V70.3l-22.1-22.1H33.5z"/>
			<path fill="#FDFDFD" d="M33.6,48.2L11.5,70.2v22.9c5.7,0,10.2,4.6,10.2,10.2c0,5.7-4.6,10.2-10.2,10.2v22.9l22.1,22.1h253.8
				l22.1-22.1v-22.9c-5.7,0-10.2-4.6-10.2-10.2c0-5.7,4.6-10.2,10.2-10.2V70.2l-22.1-22.1H33.6z"/>
			<path fill="#FCFCFC" d="M33.6,48.2L11.5,70.2v22.9c5.7,0,10.2,4.6,10.2,10.2c0,5.7-4.6,10.2-10.2,10.2v22.9l22.1,22.1h253.8
				l22.1-22.1v-22.9c-5.7,0-10.2-4.6-10.2-10.2c0-5.7,4.6-10.2,10.2-10.2V70.2l-22.1-22.1H33.6z"/>
			<path fill="#FBFBFB" d="M33.6,48.1L11.5,70.2v22.9c5.7,0,10.2,4.6,10.2,10.2c0,5.7-4.6,10.2-10.2,10.2v22.9l22.1,22.1h253.8
				l22.1-22.1v-22.9c-5.7,0-10.2-4.6-10.2-10.2c0-5.7,4.6-10.2,10.2-10.2V70.2l-22.1-22.1H33.6z"/>
			<path fill="#FAFAFA" d="M33.6,48.1L11.5,70.2V93c5.7,0,10.2,4.6,10.2,10.2c0,5.7-4.6,10.2-10.2,10.2v22.9l22.1,22.1h253.8
				l22.1-22.1v-22.9c-5.7,0-10.2-4.6-10.2-10.2c0-5.7,4.6-10.2,10.2-10.2V70.2l-22.1-22.1H33.6z"/>
			<path fill="#F9F9F9" d="M33.6,48.1L11.6,70.2V93c5.7,0,10.2,4.6,10.2,10.2c0,5.7-4.6,10.2-10.2,10.2v22.9l22.1,22.1h253.8
				l22.1-22.1v-22.9c-5.7,0-10.2-4.6-10.2-10.2c0-5.7,4.6-10.2,10.2-10.2V70.2l-22.1-22.1H33.6z"/>
			<path fill="#F8F8F8" d="M33.7,48.1L11.6,70.1V93c5.7,0,10.2,4.6,10.2,10.2c0,5.7-4.6,10.2-10.2,10.2v22.9l22.1,22.1h253.8
				l22.1-22.1v-22.9c-5.7,0-10.2-4.6-10.2-10.2c0-5.7,4.6-10.2,10.2-10.2V70.1l-22.1-22.1H33.7z"/>
			<path fill="#F7F7F7" d="M33.7,48.1L11.6,70.1V93c5.7,0,10.2,4.6,10.2,10.2c0,5.7-4.6,10.2-10.2,10.2v22.9l22.1,22.1h253.8
				l22.1-22.1v-22.9c-5.7,0-10.2-4.6-10.2-10.2c0-5.7,4.6-10.2,10.2-10.2V70.1l-22.1-22.1H33.7z"/>
			<path fill="#F6F6F6" d="M33.7,48L11.6,70.1V93c5.7,0,10.2,4.6,10.2,10.2c0,5.7-4.6,10.2-10.2,10.2v22.9l22.1,22.1h253.8
				l22.1-22.1v-22.9c-5.7,0-10.2-4.6-10.2-10.2c0-5.7,4.6-10.2,10.2-10.2V70.1L287.5,48H33.7z"/>
			<path fill="#F5F5F5" d="M33.7,48L11.6,70.1v22.9c5.7,0,10.2,4.6,10.2,10.2c0,5.7-4.6,10.2-10.2,10.2v22.9l22.1,22.1h253.8
				l22.1-22.1v-22.9c-5.7,0-10.2-4.6-10.2-10.2c0-5.7,4.6-10.2,10.2-10.2V70.1L287.5,48H33.7z"/>
			<path fill="#F4F4F4" d="M33.7,48L11.7,70.1v22.9c5.7,0,10.2,4.6,10.2,10.2c0,5.7-4.6,10.2-10.2,10.2v22.9l22.1,22.1h253.8
				l22.1-22.1v-22.9c-5.7,0-10.2-4.6-10.2-10.2c0-5.7,4.6-10.2,10.2-10.2V70.1L287.5,48H33.7z"/>
			<path fill="#F3F3F4" d="M33.8,48L11.7,70v22.9c5.7,0,10.2,4.6,10.2,10.2c0,5.7-4.6,10.2-10.2,10.2v22.9l22.1,22.1h253.8
				l22.1-22.1v-22.9c-5.7,0-10.2-4.6-10.2-10.2c0-5.7,4.6-10.2,10.2-10.2V70L287.6,48H33.8z"/>
			<path fill="#F2F2F3" d="M33.8,47.9L11.7,70v22.9c5.7,0,10.2,4.6,10.2,10.2c0,5.7-4.6,10.2-10.2,10.2v22.9l22.1,22.1h253.8
				l22.1-22.1v-22.9c-5.7,0-10.2-4.6-10.2-10.2c0-5.7,4.6-10.2,10.2-10.2V70l-22.1-22.1H33.8z"/>
			<path fill="#F1F1F2" d="M33.8,47.9L11.7,70v22.9c5.7,0,10.2,4.6,10.2,10.2c0,5.7-4.6,10.2-10.2,10.2v22.9l22.1,22.1h253.8
				l22.1-22.1v-22.9c-5.7,0-10.2-4.6-10.2-10.2c0-5.7,4.6-10.2,10.2-10.2V70l-22.1-22.1H33.8z"/>
			<path fill="#F0F0F1" d="M33.8,47.9L11.8,70v22.9c5.7,0,10.2,4.6,10.2,10.2c0,5.7-4.6,10.2-10.2,10.2v22.9l22.1,22.1h253.8
				l22.1-22.1v-22.9c-5.7,0-10.2-4.6-10.2-10.2c0-5.7,4.6-10.2,10.2-10.2V70l-22.1-22.1H33.8z"/>
			<path fill="#EFEFF0" d="M33.8,47.9L11.8,70v22.9c5.7,0,10.2,4.6,10.2,10.2c0,5.7-4.6,10.2-10.2,10.2v22.9l22.1,22.1h253.8
				l22.1-22.1v-22.9c-5.7,0-10.2-4.6-10.2-10.2c0-5.7,4.6-10.2,10.2-10.2V70l-22.1-22.1H33.8z"/>
			<path fill="#EEEEEF" d="M33.9,47.9L11.8,69.9v22.9c5.7,0,10.2,4.6,10.2,10.2c0,5.7-4.6,10.2-10.2,10.2v22.9l22.1,22.1h253.8
				l22.1-22.1v-22.9c-5.7,0-10.2-4.6-10.2-10.2c0-5.7,4.6-10.2,10.2-10.2V69.9l-22.1-22.1H33.9z"/>
			<path fill="#EDEDEE" d="M33.9,47.8L11.8,69.9v22.9c5.7,0,10.2,4.6,10.2,10.2c0,5.7-4.6,10.2-10.2,10.2v22.9l22.1,22.1h253.8
				l22.1-22.1v-22.9c-5.7,0-10.2-4.6-10.2-10.2c0-5.7,4.6-10.2,10.2-10.2V69.9l-22.1-22.1H33.9z"/>
			<path fill="#ECECED" d="M33.9,47.8L11.8,69.9v22.9c5.7,0,10.2,4.6,10.2,10.2c0,5.7-4.6,10.2-10.2,10.2v22.9l22.1,22.1h253.8
				l22.1-22.1v-22.9c-5.7,0-10.2-4.6-10.2-10.2c0-5.7,4.6-10.2,10.2-10.2V69.9l-22.1-22.1H33.9z"/>
			<path fill="#EBEBEC" d="M33.9,47.8L11.9,69.9v22.9c5.7,0,10.2,4.6,10.2,10.2c0,5.7-4.6,10.2-10.2,10.2v22.9l22.1,22.1h253.8
				l22.1-22.1v-22.9c-5.7,0-10.2-4.6-10.2-10.2c0-5.7,4.6-10.2,10.2-10.2V69.9l-22.1-22.1H33.9z"/>
			<path fill="#EAEBEB" d="M33.9,47.8L11.9,69.9v22.9c5.7,0,10.2,4.6,10.2,10.2c0,5.7-4.6,10.2-10.2,10.2v22.9l22.1,22.1h253.8
				l22.1-22.1v-22.9c-5.7,0-10.2-4.6-10.2-10.2c0-5.7,4.6-10.2,10.2-10.2V69.9l-22.1-22.1H33.9z"/>
			<path fill="#E9EAEA" d="M34,47.8L11.9,69.8v22.9c5.7,0,10.2,4.6,10.2,10.2c0,5.7-4.6,10.2-10.2,10.2V136L34,158.1h253.8
				l22.1-22.1v-22.9c-5.7,0-10.2-4.6-10.2-10.2c0-5.7,4.6-10.2,10.2-10.2V69.8l-22.1-22.1H34z"/>
			<path fill="#E8E9E9" d="M34,47.7L11.9,69.8v22.9c5.7,0,10.2,4.6,10.2,10.2c0,5.7-4.6,10.2-10.2,10.2V136L34,158.1h253.8
				l22.1-22.1v-22.9c-5.7,0-10.2-4.6-10.2-10.2c0-5.7,4.6-10.2,10.2-10.2V69.8l-22.1-22.1H34z"/>
			<path fill="#E7E8E8" d="M34,47.7L11.9,69.8v22.9c5.7,0,10.2,4.6,10.2,10.2c0,5.7-4.6,10.2-10.2,10.2V136L34,158.1h253.8
				l22.1-22.1v-22.9c-5.7,0-10.2-4.6-10.2-10.2c0-5.7,4.6-10.2,10.2-10.2V69.8l-22.1-22.1H34z"/>
			<path fill="#E6E7E7" d="M34,47.7L12,69.8v22.9c5.7,0,10.2,4.6,10.2,10.2c0,5.7-4.6,10.2-10.2,10.2V136L34,158h253.8l22.1-22.1
				v-22.9c-5.7,0-10.2-4.6-10.2-10.2c0-5.7,4.6-10.2,10.2-10.2V69.8l-22.1-22.1H34z"/>
			<path fill="#E5E6E6" d="M34.1,47.7L12,69.7v22.9c5.7,0,10.2,4.6,10.2,10.2c0,5.7-4.6,10.2-10.2,10.2V136L34.1,158h253.8
				l22.1-22.1v-22.9c-5.7,0-10.2-4.6-10.2-10.2c0-5.7,4.6-10.2,10.2-10.2V69.7l-22.1-22.1H34.1z"/>
			<path fill="#E4E5E5" d="M34.1,47.7L12,69.7v22.9c5.7,0,10.2,4.6,10.2,10.2c0,5.7-4.6,10.2-10.2,10.2v22.9L34.1,158h253.8
				l22.1-22.1v-22.9c-5.7,0-10.2-4.6-10.2-10.2c0-5.7,4.6-10.2,10.2-10.2V69.7l-22.1-22.1H34.1z"/>
			<path fill="#E3E4E4" d="M34.1,47.6L12,69.7v22.9c5.7,0,10.2,4.6,10.2,10.2c0,5.7-4.6,10.2-10.2,10.2v22.9L34.1,158h253.8
				l22.1-22.1v-22.9c-5.7,0-10.2-4.6-10.2-10.2c0-5.7,4.6-10.2,10.2-10.2V69.7l-22.1-22.1H34.1z"/>
			<path fill="#E2E3E3" d="M34.1,47.6L12,69.7v22.9c5.7,0,10.2,4.6,10.2,10.2c0,5.7-4.6,10.2-10.2,10.2v22.9L34.1,158h253.8
				l22.1-22.1V113c-5.7,0-10.2-4.6-10.2-10.2c0-5.7,4.6-10.2,10.2-10.2V69.7l-22.1-22.1H34.1z"/>
			<path fill="#E1E2E2" d="M34.1,47.6L12.1,69.7v22.9c5.7,0,10.2,4.6,10.2,10.2c0,5.7-4.6,10.2-10.2,10.2v22.9l22.1,22.1h253.8
				l22.1-22.1V113c-5.7,0-10.2-4.6-10.2-10.2c0-5.7,4.6-10.2,10.2-10.2V69.7l-22.1-22.1H34.1z"/>
			<path fill="#E0E1E1" d="M34.2,47.6L12.1,69.6v22.9c5.7,0,10.2,4.6,10.2,10.2c0,5.7-4.6,10.2-10.2,10.2v22.9l22.1,22.1h253.8
				l22.1-22.1V113c-5.7,0-10.2-4.6-10.2-10.2c0-5.7,4.6-10.2,10.2-10.2V69.6l-22.1-22.1H34.2z"/>
			<path fill="#DFE0E0" d="M34.2,47.6L12.1,69.6v22.9c5.7,0,10.2,4.6,10.2,10.2c0,5.7-4.6,10.2-10.2,10.2v22.9l22.1,22.1H288
				l22.1-22.1V113c-5.7,0-10.2-4.6-10.2-10.2c0-5.7,4.6-10.2,10.2-10.2V69.6L288,47.6H34.2z"/>
			<path fill="#DEDFDF" d="M34.2,47.5L12.1,69.6v22.9c5.7,0,10.2,4.6,10.2,10.2c0,5.7-4.6,10.2-10.2,10.2v22.9l22.1,22.1H288
				l22.1-22.1v-22.9c-5.7,0-10.2-4.6-10.2-10.2c0-5.7,4.6-10.2,10.2-10.2V69.6L288,47.5H34.2z"/>
			<path fill="#DDDEDF" d="M34.2,47.5L12.1,69.6v22.9c5.7,0,10.2,4.6,10.2,10.2c0,5.7-4.6,10.2-10.2,10.2v22.9l22.1,22.1H288
				l22.1-22.1v-22.9c-5.7,0-10.2-4.6-10.2-10.2c0-5.7,4.6-10.2,10.2-10.2V69.6L288,47.5H34.2z"/>
			<path fill="#DCDDDE" d="M34.2,47.5L12.2,69.6v22.9c5.7,0,10.2,4.6,10.2,10.2c0,5.7-4.6,10.2-10.2,10.2v22.9l22.1,22.1H288
				l22.1-22.1v-22.9c-5.7,0-10.2-4.6-10.2-10.2c0-5.7,4.6-10.2,10.2-10.2V69.6L288,47.5H34.2z"/>
			<path fill="#DBDCDD" d="M34.3,47.5L12.2,69.5v22.9c5.7,0,10.2,4.6,10.2,10.2c0,5.7-4.6,10.2-10.2,10.2v22.9l22.1,22.1h253.8
				l22.1-22.1v-22.9c-5.7,0-10.2-4.6-10.2-10.2c0-5.7,4.6-10.2,10.2-10.2V69.5l-22.1-22.1H34.3z"/>
			<path fill="#DADBDC" d="M34.3,47.4L12.2,69.5v22.9c5.7,0,10.2,4.6,10.2,10.2c0,5.7-4.6,10.2-10.2,10.2v22.9l22.1,22.1h253.8
				l22.1-22.1v-22.9c-5.7,0-10.2-4.6-10.2-10.2c0-5.7,4.6-10.2,10.2-10.2V69.5l-22.1-22.1H34.3z"/>
			<path fill="#D9DADB" d="M34.3,47.4L12.2,69.5v22.9c5.7,0,10.2,4.6,10.2,10.2c0,5.7-4.6,10.2-10.2,10.2v22.9l22.1,22.1h253.8
				l22.1-22.1v-22.9c-5.7,0-10.2-4.6-10.2-10.2c0-5.7,4.6-10.2,10.2-10.2V69.5l-22.1-22.1H34.3z"/>
			<path fill="#D8D9DA" d="M34.3,47.4L12.3,69.5v22.9c5.7,0,10.2,4.6,10.2,10.2c0,5.7-4.6,10.2-10.2,10.2v22.9l22.1,22.1h253.8
				l22.1-22.1v-22.9c-5.7,0-10.2-4.6-10.2-10.2c0-5.7,4.6-10.2,10.2-10.2V69.5l-22.1-22.1H34.3z"/>
			<path fill="#D7D8D9" d="M34.3,47.4L12.3,69.5v22.9c5.7,0,10.2,4.6,10.2,10.2c0,5.7-4.6,10.2-10.2,10.2v22.9l22.1,22.1h253.8
				l22.1-22.1v-22.9c-5.7,0-10.2-4.6-10.2-10.2c0-5.7,4.6-10.2,10.2-10.2V69.5l-22.1-22.1H34.3z"/>
			<path fill="#D6D7D8" d="M34.4,47.4L12.3,69.4v22.9c5.7,0,10.2,4.6,10.2,10.2c0,5.7-4.6,10.2-10.2,10.2v22.9l22.1,22.1h253.8
				l22.1-22.1v-22.9c-5.7,0-10.2-4.6-10.2-10.2c0-5.7,4.6-10.2,10.2-10.2V69.4l-22.1-22.1H34.4z"/>
			<path fill="#D5D6D7" d="M34.4,47.3L12.3,69.4v22.9c5.7,0,10.2,4.6,10.2,10.2c0,5.7-4.6,10.2-10.2,10.2v22.9l22.1,22.1h253.8
				l22.1-22.1v-22.9c-5.7,0-10.2-4.6-10.2-10.2c0-5.7,4.6-10.2,10.2-10.2V69.4l-22.1-22.1H34.4z"/>
			<path fill="#D4D5D6" d="M34.4,47.3L12.3,69.4v22.9c5.7,0,10.2,4.6,10.2,10.2c0,5.7-4.6,10.2-10.2,10.2v22.9l22.1,22.1h253.8
				l22.1-22.1v-22.9c-5.7,0-10.2-4.6-10.2-10.2c0-5.7,4.6-10.2,10.2-10.2V69.4l-22.1-22.1H34.4z"/>
			<path fill="#D3D4D5" d="M34.4,47.3L12.4,69.4v22.9c5.7,0,10.2,4.6,10.2,10.2c0,5.7-4.6,10.2-10.2,10.2v22.9l22.1,22.1h253.8
				l22.1-22.1v-22.9c-5.7,0-10.2-4.6-10.2-10.2c0-5.7,4.6-10.2,10.2-10.2V69.4l-22.1-22.1H34.4z"/>
			<path fill="#D2D3D4" d="M34.4,47.3L12.4,69.4v22.9c5.7,0,10.2,4.6,10.2,10.2c0,5.7-4.6,10.2-10.2,10.2v22.9l22.1,22.1h253.8
				l22.1-22.1v-22.9c-5.7,0-10.2-4.6-10.2-10.2c0-5.7,4.6-10.2,10.2-10.2V69.4l-22.1-22.1H34.4z"/>
			<path fill="#D1D2D3" d="M34.5,47.3L12.4,69.3v22.9c5.7,0,10.2,4.6,10.2,10.2c0,5.7-4.6,10.2-10.2,10.2v22.9l22.1,22.1h253.8
				l22.1-22.1v-22.9c-5.7,0-10.2-4.6-10.2-10.2c0-5.7,4.6-10.2,10.2-10.2V69.3l-22.1-22.1H34.5z"/>
			<path fill="#D0D1D2" d="M34.5,47.2L12.4,69.3v22.9c5.7,0,10.2,4.6,10.2,10.2c0,5.7-4.6,10.2-10.2,10.2v22.9l22.1,22.1h253.8
				l22.1-22.1v-22.9c-5.7,0-10.2-4.6-10.2-10.2c0-5.7,4.6-10.2,10.2-10.2V69.3l-22.1-22.1H34.5z"/>
			<path fill="#CFD0D1" d="M34.5,47.2L12.4,69.3v22.9c5.7,0,10.2,4.6,10.2,10.2c0,5.7-4.6,10.2-10.2,10.2v22.9l22.1,22.1h253.8
				l22.1-22.1v-22.9c-5.7,0-10.2-4.6-10.2-10.2c0-5.7,4.6-10.2,10.2-10.2V69.3l-22.1-22.1H34.5z"/>
			<path fill="#CECFD0" d="M34.5,47.2L12.5,69.3v22.9c5.7,0,10.2,4.6,10.2,10.2c0,5.7-4.6,10.2-10.2,10.2v22.9l22.1,22.1h253.8
				l22.1-22.1v-22.9c-5.7,0-10.2-4.6-10.2-10.2c0-5.7,4.6-10.2,10.2-10.2V69.3l-22.1-22.1H34.5z"/>
			<path fill="#CDCECF" d="M34.6,47.2L12.5,69.2v22.9c5.7,0,10.2,4.6,10.2,10.2c0,5.7-4.6,10.2-10.2,10.2v22.9l22.1,22.1h253.8
				l22.1-22.1v-22.9c-5.7,0-10.2-4.6-10.2-10.2c0-5.7,4.6-10.2,10.2-10.2V69.2l-22.1-22.1H34.6z"/>
			<path fill="#CDCDCE" d="M34.6,47.2L12.5,69.2v22.9c5.7,0,10.2,4.6,10.2,10.2c0,5.7-4.6,10.2-10.2,10.2v22.9l22.1,22.1h253.8
				l22.1-22.1v-22.9c-5.7,0-10.2-4.6-10.2-10.2c0-5.7,4.6-10.2,10.2-10.2V69.2l-22.1-22.1H34.6z"/>
			<path fill="#CCCCCD" d="M34.6,47.1L12.5,69.2v22.9c5.7,0,10.2,4.6,10.2,10.2c0,5.7-4.6,10.2-10.2,10.2v22.9l22.1,22.1h253.8
				l22.1-22.1v-22.9c-5.7,0-10.2-4.6-10.2-10.2c0-5.7,4.6-10.2,10.2-10.2V69.2l-22.1-22.1H34.6z"/>
			<path fill="#CBCBCC" d="M34.6,47.1L12.5,69.2V92c5.7,0,10.2,4.6,10.2,10.2c0,5.7-4.6,10.2-10.2,10.2v22.9l22.1,22.1h253.8
				l22.1-22.1v-22.9c-5.7,0-10.2-4.6-10.2-10.2c0-5.7,4.6-10.2,10.2-10.2V69.2l-22.1-22.1H34.6z"/>
			<path fill="#CACACB" d="M34.6,47.1L12.6,69.2V92c5.7,0,10.2,4.6,10.2,10.2c0,5.7-4.6,10.2-10.2,10.2v22.9l22.1,22.1h253.8
				l22.1-22.1v-22.9c-5.7,0-10.2-4.6-10.2-10.2c0-5.7,4.6-10.2,10.2-10.2V69.2l-22.1-22.1H34.6z"/>
			<path fill="#C9C9CA" d="M34.7,47.1L12.6,69.1V92c5.7,0,10.2,4.6,10.2,10.2c0,5.7-4.6,10.2-10.2,10.2v22.9l22.1,22.1h253.8
				l22.1-22.1v-22.9c-5.7,0-10.2-4.6-10.2-10.2c0-5.7,4.6-10.2,10.2-10.2V69.1l-22.1-22.1H34.7z"/>
			<path fill="#C8C8C9" d="M34.7,47.1L12.6,69.1V92c5.7,0,10.2,4.6,10.2,10.2c0,5.7-4.6,10.2-10.2,10.2v22.9l22.1,22.1h253.8
				l22.1-22.1v-22.9c-5.7,0-10.2-4.6-10.2-10.2c0-5.7,4.6-10.2,10.2-10.2V69.1l-22.1-22.1H34.7z"/>
			<path fill="#C7C7C9" d="M34.7,47L12.6,69.1V92c5.7,0,10.2,4.6,10.2,10.2c0,5.7-4.6,10.2-10.2,10.2v22.9l22.1,22.1h253.8
				l22.1-22.1v-22.9c-5.7,0-10.2-4.6-10.2-10.2c0-5.7,4.6-10.2,10.2-10.2V69.1L288.5,47H34.7z"/>
			<path fill="#C6C6C8" d="M34.7,47L12.6,69.1v22.9c5.7,0,10.2,4.6,10.2,10.2c0,5.7-4.6,10.2-10.2,10.2v22.9l22.1,22.1h253.8
				l22.1-22.1v-22.9c-5.7,0-10.2-4.6-10.2-10.2c0-5.7,4.6-10.2,10.2-10.2V69.1L288.5,47H34.7z"/>
			<path fill="#C5C5C7" d="M34.7,47L12.7,69.1v22.9c5.7,0,10.2,4.6,10.2,10.2c0,5.7-4.6,10.2-10.2,10.2v22.9l22.1,22.1h253.8
				l22.1-22.1v-22.9c-5.7,0-10.2-4.6-10.2-10.2c0-5.7,4.6-10.2,10.2-10.2V69.1L288.5,47H34.7z"/>
			<path fill="#C4C4C6" d="M34.8,47L12.7,69v22.9c5.7,0,10.2,4.6,10.2,10.2c0,5.7-4.6,10.2-10.2,10.2v22.9l22.1,22.1h253.8
				l22.1-22.1v-22.9c-5.7,0-10.2-4.6-10.2-10.2c0-5.7,4.6-10.2,10.2-10.2V69L288.6,47H34.8z"/>
			<path fill="#C3C3C5" d="M34.8,46.9L12.7,69v22.9c5.7,0,10.2,4.6,10.2,10.2c0,5.7-4.6,10.2-10.2,10.2v22.9l22.1,22.1h253.8
				l22.1-22.1v-22.9c-5.7,0-10.2-4.6-10.2-10.2c0-5.7,4.6-10.2,10.2-10.2V69l-22.1-22.1H34.8z"/>
			<path fill="#C2C2C4" d="M34.8,46.9L12.7,69v22.9c5.7,0,10.2,4.6,10.2,10.2c0,5.7-4.6,10.2-10.2,10.2v22.9l22.1,22.1h253.8
				l22.1-22.1v-22.9c-5.7,0-10.2-4.6-10.2-10.2c0-5.7,4.6-10.2,10.2-10.2V69l-22.1-22.1H34.8z"/>
			<path fill="#C1C2C3" d="M34.8,46.9L12.8,69v22.9c5.7,0,10.2,4.6,10.2,10.2c0,5.7-4.6,10.2-10.2,10.2v22.9l22.1,22.1h253.8
				l22.1-22.1v-22.9c-5.7,0-10.2-4.6-10.2-10.2c0-5.7,4.6-10.2,10.2-10.2V69l-22.1-22.1H34.8z"/>
			<path fill="#C0C1C2" d="M34.8,46.9L12.8,69v22.9c5.7,0,10.2,4.6,10.2,10.2c0,5.7-4.6,10.2-10.2,10.2v22.9l22.1,22.1h253.8
				l22.1-22.1v-22.9c-5.7,0-10.2-4.6-10.2-10.2c0-5.7,4.6-10.2,10.2-10.2V69l-22.1-22.1H34.8z"/>
			<path fill="#BFC0C1" d="M34.9,46.9L12.8,68.9v22.9c5.7,0,10.2,4.6,10.2,10.2c0,5.7-4.6,10.2-10.2,10.2v22.9l22.1,22.1h253.8
				l22.1-22.1v-22.9c-5.7,0-10.2-4.6-10.2-10.2c0-5.7,4.6-10.2,10.2-10.2V68.9l-22.1-22.1H34.9z"/>
			<path fill="#BEBFC0" d="M34.9,46.8L12.8,68.9v22.9c5.7,0,10.2,4.6,10.2,10.2c0,5.7-4.6,10.2-10.2,10.2v22.9l22.1,22.1h253.8
				l22.1-22.1v-22.9c-5.7,0-10.2-4.6-10.2-10.2c0-5.7,4.6-10.2,10.2-10.2V68.9l-22.1-22.1H34.9z"/>
			<path fill="#BDBEBF" d="M34.9,46.8L12.8,68.9v22.9c5.7,0,10.2,4.6,10.2,10.2c0,5.7-4.6,10.2-10.2,10.2v22.9l22.1,22.1h253.8
				l22.1-22.1v-22.9c-5.7,0-10.2-4.6-10.2-10.2c0-5.7,4.6-10.2,10.2-10.2V68.9l-22.1-22.1H34.9z"/>
			<path fill="#BCBDBE" d="M34.9,46.8L12.9,68.9v22.9c5.7,0,10.2,4.6,10.2,10.2c0,5.7-4.6,10.2-10.2,10.2v22.9l22.1,22.1h253.8
				l22.1-22.1v-22.9c-5.7,0-10.2-4.6-10.2-10.2c0-5.7,4.6-10.2,10.2-10.2V68.9l-22.1-22.1H34.9z"/>
			<path fill="#BBBCBD" d="M34.9,46.8L12.9,68.9v22.9c5.7,0,10.2,4.6,10.2,10.2c0,5.7-4.6,10.2-10.2,10.2v22.9l22.1,22.1h253.8
				l22.1-22.1v-22.9c-5.7,0-10.2-4.6-10.2-10.2c0-5.7,4.6-10.2,10.2-10.2V68.9l-22.1-22.1H34.9z"/>
			<path fill="#BABBBC" d="M35,46.8L12.9,68.8v22.9c5.7,0,10.2,4.6,10.2,10.2c0,5.7-4.6,10.2-10.2,10.2V135L35,157.1h253.8
				l22.1-22.1v-22.9c-5.7,0-10.2-4.6-10.2-10.2c0-5.7,4.6-10.2,10.2-10.2V68.8l-22.1-22.1H35z"/>
			<path fill="#B9BABB" d="M35,46.7L12.9,68.8v22.9c5.7,0,10.2,4.6,10.2,10.2c0,5.7-4.6,10.2-10.2,10.2V135L35,157.1h253.8
				l22.1-22.1v-22.9c-5.7,0-10.2-4.6-10.2-10.2c0-5.7,4.6-10.2,10.2-10.2V68.8l-22.1-22.1H35z"/>
			<path fill="#B8B9BA" d="M35,46.7L12.9,68.8v22.9c5.7,0,10.2,4.6,10.2,10.2c0,5.7-4.6,10.2-10.2,10.2V135L35,157.1h253.8
				l22.1-22.1v-22.9c-5.7,0-10.2-4.6-10.2-10.2c0-5.7,4.6-10.2,10.2-10.2V68.8l-22.1-22.1H35z"/>
			<path fill="#B7B8B9" d="M35,46.7L13,68.8v22.9c5.7,0,10.2,4.6,10.2,10.2c0,5.7-4.6,10.2-10.2,10.2V135L35,157h253.8l22.1-22.1
				v-22.9c-5.7,0-10.2-4.6-10.2-10.2c0-5.7,4.6-10.2,10.2-10.2V68.8l-22.1-22.1H35z"/>
			<path fill="#B6B7B8" d="M35.1,46.7L13,68.7v22.9c5.7,0,10.2,4.6,10.2,10.2c0,5.7-4.6,10.2-10.2,10.2V135L35.1,157h253.8
				l22.1-22.1v-22.9c-5.7,0-10.2-4.6-10.2-10.2c0-5.7,4.6-10.2,10.2-10.2V68.7l-22.1-22.1H35.1z"/>
			<path fill="#B5B6B7" d="M35.1,46.7L13,68.7v22.9c5.7,0,10.2,4.6,10.2,10.2c0,5.7-4.6,10.2-10.2,10.2v22.9L35.1,157h253.8
				l22.1-22.1v-22.9c-5.7,0-10.2-4.6-10.2-10.2c0-5.7,4.6-10.2,10.2-10.2V68.7l-22.1-22.1H35.1z"/>
			<path fill="#B4B5B6" d="M35.1,46.6L13,68.7v22.9c5.7,0,10.2,4.6,10.2,10.2c0,5.7-4.6,10.2-10.2,10.2v22.9L35.1,157h253.8
				l22.1-22.1v-22.9c-5.7,0-10.2-4.6-10.2-10.2c0-5.7,4.6-10.2,10.2-10.2V68.7l-22.1-22.1H35.1z"/>
			<path fill="#B3B4B5" d="M35.1,46.6L13,68.7v22.9c5.7,0,10.2,4.6,10.2,10.2c0,5.7-4.6,10.2-10.2,10.2v22.9L35.1,157h253.8
				l22.1-22.1V112c-5.7,0-10.2-4.6-10.2-10.2c0-5.7,4.6-10.2,10.2-10.2V68.7l-22.1-22.1H35.1z"/>
			<path fill="#B2B3B4" d="M35.1,46.6L13.1,68.7v22.9c5.7,0,10.2,4.6,10.2,10.2c0,5.7-4.6,10.2-10.2,10.2v22.9l22.1,22.1h253.8
				l22.1-22.1V112c-5.7,0-10.2-4.6-10.2-10.2c0-5.7,4.6-10.2,10.2-10.2V68.7l-22.1-22.1H35.1z"/>
			<path fill="#B1B2B4" d="M35.2,46.6L13.1,68.6v22.9c5.7,0,10.2,4.6,10.2,10.2c0,5.7-4.6,10.2-10.2,10.2v22.9l22.1,22.1h253.8
				l22.1-22.1V112c-5.7,0-10.2-4.6-10.2-10.2c0-5.7,4.6-10.2,10.2-10.2V68.6l-22.1-22.1H35.2z"/>
			<path fill="#B0B1B3" d="M35.2,46.6L13.1,68.6v22.9c5.7,0,10.2,4.6,10.2,10.2c0,5.7-4.6,10.2-10.2,10.2v22.9l22.1,22.1H289
				l22.1-22.1V112c-5.7,0-10.2-4.6-10.2-10.2c0-5.7,4.6-10.2,10.2-10.2V68.6L289,46.6H35.2z"/>
			<path fill="#AFB0B2" d="M35.2,46.5L13.1,68.6v22.9c5.7,0,10.2,4.6,10.2,10.2c0,5.7-4.6,10.2-10.2,10.2v22.9l22.1,22.1H289
				l22.1-22.1v-22.9c-5.7,0-10.2-4.6-10.2-10.2c0-5.7,4.6-10.2,10.2-10.2V68.6L289,46.5H35.2z"/>
			<path fill="#AEAFB1" d="M35.2,46.5L13.1,68.6v22.9c5.7,0,10.2,4.6,10.2,10.2c0,5.7-4.6,10.2-10.2,10.2v22.9l22.1,22.1H289
				l22.1-22.1v-22.9c-5.7,0-10.2-4.6-10.2-10.2c0-5.7,4.6-10.2,10.2-10.2V68.6L289,46.5H35.2z"/>
			<path fill="#ADAEB0" d="M35.2,46.5L13.2,68.6v22.9c5.7,0,10.2,4.6,10.2,10.2c0,5.7-4.6,10.2-10.2,10.2v22.9l22.1,22.1H289
				l22.1-22.1v-22.9c-5.7,0-10.2-4.6-10.2-10.2c0-5.7,4.6-10.2,10.2-10.2V68.6L289,46.5H35.2z"/>
			<path fill="#ACADAF" d="M35.3,46.5L13.2,68.5v22.9c5.7,0,10.2,4.6,10.2,10.2c0,5.7-4.6,10.2-10.2,10.2v22.9l22.1,22.1h253.8
				l22.1-22.1v-22.9c-5.7,0-10.2-4.6-10.2-10.2c0-5.7,4.6-10.2,10.2-10.2V68.5l-22.1-22.1H35.3z"/>
			<path fill="#ABACAE" d="M35.3,46.4L13.2,68.5v22.9c5.7,0,10.2,4.6,10.2,10.2c0,5.7-4.6,10.2-10.2,10.2v22.9l22.1,22.1h253.8
				l22.1-22.1v-22.9c-5.7,0-10.2-4.6-10.2-10.2c0-5.7,4.6-10.2,10.2-10.2V68.5l-22.1-22.1H35.3z"/>
			<path fill="#AAABAD" d="M35.3,46.4L13.2,68.5v22.9c5.7,0,10.2,4.6,10.2,10.2c0,5.7-4.6,10.2-10.2,10.2v22.9l22.1,22.1h253.8
				l22.1-22.1v-22.9c-5.7,0-10.2-4.6-10.2-10.2c0-5.7,4.6-10.2,10.2-10.2V68.5l-22.1-22.1H35.3z"/>
			<path fill="#A9AAAC" d="M35.3,46.4L13.3,68.5v22.9c5.7,0,10.2,4.6,10.2,10.2c0,5.7-4.6,10.2-10.2,10.2v22.9l22.1,22.1h253.8
				l22.1-22.1v-22.9c-5.7,0-10.2-4.6-10.2-10.2c0-5.7,4.6-10.2,10.2-10.2V68.5l-22.1-22.1H35.3z"/>
			<path fill="#A8A9AB" d="M35.3,46.4L13.3,68.5v22.9c5.7,0,10.2,4.6,10.2,10.2c0,5.7-4.6,10.2-10.2,10.2v22.9l22.1,22.1h253.8
				l22.1-22.1v-22.9c-5.7,0-10.2-4.6-10.2-10.2c0-5.7,4.6-10.2,10.2-10.2V68.5l-22.1-22.1H35.3z"/>
			<path fill="#A7A8AA" d="M35.4,46.4L13.3,68.4v22.9c5.7,0,10.2,4.6,10.2,10.2c0,5.7-4.6,10.2-10.2,10.2v22.9l22.1,22.1h253.8
				l22.1-22.1v-22.9c-5.7,0-10.2-4.6-10.2-10.2c0-5.7,4.6-10.2,10.2-10.2V68.4l-22.1-22.1H35.4z"/>
			<path fill="#A6A7A9" d="M35.4,46.3L13.3,68.4v22.9c5.7,0,10.2,4.6,10.2,10.2c0,5.7-4.6,10.2-10.2,10.2v22.9l22.1,22.1h253.8
				l22.1-22.1v-22.9c-5.7,0-10.2-4.6-10.2-10.2c0-5.7,4.6-10.2,10.2-10.2V68.4l-22.1-22.1H35.4z"/>
			<path fill="#A5A6A8" d="M35.4,46.3L13.3,68.4v22.9c5.7,0,10.2,4.6,10.2,10.2c0,5.7-4.6,10.2-10.2,10.2v22.9l22.1,22.1h253.8
				l22.1-22.1v-22.9c-5.7,0-10.2-4.6-10.2-10.2c0-5.7,4.6-10.2,10.2-10.2V68.4l-22.1-22.1H35.4z"/>
			<path fill="#A4A5A7" d="M35.4,46.3L13.4,68.4v22.9c5.7,0,10.2,4.6,10.2,10.2c0,5.7-4.6,10.2-10.2,10.2v22.9l22.1,22.1h253.8
				l22.1-22.1v-22.9c-5.7,0-10.2-4.6-10.2-10.2c0-5.7,4.6-10.2,10.2-10.2V68.4l-22.1-22.1H35.4z"/>
			<path fill="#A3A4A6" d="M35.4,46.3L13.4,68.4v22.9c5.7,0,10.2,4.6,10.2,10.2c0,5.7-4.6,10.2-10.2,10.2v22.9l22.1,22.1h253.8
				l22.1-22.1v-22.9c-5.7,0-10.2-4.6-10.2-10.2c0-5.7,4.6-10.2,10.2-10.2V68.4l-22.1-22.1H35.4z"/>
			<path fill="#A2A3A5" d="M35.5,46.3L13.4,68.3v22.9c5.7,0,10.2,4.6,10.2,10.2c0,5.7-4.6,10.2-10.2,10.2v22.9l22.1,22.1h253.8
				l22.1-22.1v-22.9c-5.7,0-10.2-4.6-10.2-10.2c0-5.7,4.6-10.2,10.2-10.2V68.3l-22.1-22.1H35.5z"/>
			<path fill="#A1A2A4" d="M35.5,46.2L13.4,68.3v22.9c5.7,0,10.2,4.6,10.2,10.2c0,5.7-4.6,10.2-10.2,10.2v22.9l22.1,22.1h253.8
				l22.1-22.1v-22.9c-5.7,0-10.2-4.6-10.2-10.2c0-5.7,4.6-10.2,10.2-10.2V68.3l-22.1-22.1H35.5z"/>
			<path fill="#A0A1A3" d="M35.5,46.2L13.4,68.3v22.9c5.7,0,10.2,4.6,10.2,10.2c0,5.7-4.6,10.2-10.2,10.2v22.9l22.1,22.1h253.8
				l22.1-22.1v-22.9c-5.7,0-10.2-4.6-10.2-10.2c0-5.7,4.6-10.2,10.2-10.2V68.3l-22.1-22.1H35.5z"/>
			<path fill="#9FA0A2" d="M35.5,46.2L13.5,68.3v22.9c5.7,0,10.2,4.6,10.2,10.2c0,5.7-4.6,10.2-10.2,10.2v22.9l22.1,22.1h253.8
				l22.1-22.1v-22.9c-5.7,0-10.2-4.6-10.2-10.2c0-5.7,4.6-10.2,10.2-10.2V68.3l-22.1-22.1H35.5z"/>
			<path fill="#9E9FA1" d="M35.6,46.2L13.5,68.2v22.9c5.7,0,10.2,4.6,10.2,10.2c0,5.7-4.6,10.2-10.2,10.2v22.9l22.1,22.1h253.8
				l22.1-22.1v-22.9c-5.7,0-10.2-4.6-10.2-10.2c0-5.7,4.6-10.2,10.2-10.2V68.2l-22.1-22.1H35.6z"/>
			<path fill="#9D9EA0" d="M35.6,46.2L13.5,68.2v22.9c5.7,0,10.2,4.6,10.2,10.2c0,5.7-4.6,10.2-10.2,10.2v22.9l22.1,22.1h253.8
				l22.1-22.1v-22.9c-5.7,0-10.2-4.6-10.2-10.2c0-5.7,4.6-10.2,10.2-10.2V68.2l-22.1-22.1H35.6z"/>
			<path fill="#9C9D9F" d="M35.6,46.1L13.5,68.2v22.9c5.7,0,10.2,4.6,10.2,10.2c0,5.7-4.6,10.2-10.2,10.2v22.9l22.1,22.1h253.8
				l22.1-22.1v-22.9c-5.7,0-10.2-4.6-10.2-10.2c0-5.7,4.6-10.2,10.2-10.2V68.2l-22.1-22.1H35.6z"/>
			<path fill="#9B9C9E" d="M35.6,46.1L13.5,68.2V91c5.7,0,10.2,4.6,10.2,10.2c0,5.7-4.6,10.2-10.2,10.2v22.9l22.1,22.1h253.8
				l22.1-22.1v-22.9c-5.7,0-10.2-4.6-10.2-10.2c0-5.7,4.6-10.2,10.2-10.2V68.2l-22.1-22.1H35.6z"/>
			<path fill="#9A9B9E" d="M35.6,46.1L13.6,68.2V91c5.7,0,10.2,4.6,10.2,10.2c0,5.7-4.6,10.2-10.2,10.2v22.9l22.1,22.1h253.8
				l22.1-22.1v-22.9c-5.7,0-10.2-4.6-10.2-10.2c0-5.7,4.6-10.2,10.2-10.2V68.2l-22.1-22.1H35.6z"/>
			<path fill="#999A9D" d="M35.7,46.1L13.6,68.1V91c5.7,0,10.2,4.6,10.2,10.2c0,5.7-4.6,10.2-10.2,10.2v22.9l22.1,22.1h253.8
				l22.1-22.1v-22.9c-5.7,0-10.2-4.6-10.2-10.2c0-5.7,4.6-10.2,10.2-10.2V68.1l-22.1-22.1H35.7z"/>
			<path fill="#989A9C" d="M35.7,46.1L13.6,68.1V91c5.7,0,10.2,4.6,10.2,10.2c0,5.7-4.6,10.2-10.2,10.2v22.9l22.1,22.1h253.8
				l22.1-22.1v-22.9c-5.7,0-10.2-4.6-10.2-10.2c0-5.7,4.6-10.2,10.2-10.2V68.1l-22.1-22.1H35.7z"/>
			<path fill="#97999B" d="M35.7,46L13.6,68.1V91c5.7,0,10.2,4.6,10.2,10.2c0,5.7-4.6,10.2-10.2,10.2v22.9l22.1,22.1h253.8
				l22.1-22.1v-22.9c-5.7,0-10.2-4.6-10.2-10.2c0-5.7,4.6-10.2,10.2-10.2V68.1L289.5,46H35.7z"/>
			<path fill="#96989A" d="M35.7,46L13.6,68.1v22.9c5.7,0,10.2,4.6,10.2,10.2c0,5.7-4.6,10.2-10.2,10.2v22.9l22.1,22.1h253.8
				l22.1-22.1v-22.9c-5.7,0-10.2-4.6-10.2-10.2c0-5.7,4.6-10.2,10.2-10.2V68.1L289.5,46H35.7z"/>
			<path fill="#959799" d="M35.7,46L13.7,68.1v22.9c5.7,0,10.2,4.6,10.2,10.2c0,5.7-4.6,10.2-10.2,10.2v22.9l22.1,22.1h253.8
				l22.1-22.1v-22.9c-5.7,0-10.2-4.6-10.2-10.2c0-5.7,4.6-10.2,10.2-10.2V68.1L289.5,46H35.7z"/>
			<path fill="#949698" d="M35.8,46L13.7,68v22.9c5.7,0,10.2,4.6,10.2,10.2c0,5.7-4.6,10.2-10.2,10.2v22.9l22.1,22.1h253.8
				l22.1-22.1v-22.9c-5.7,0-10.2-4.6-10.2-10.2c0-5.7,4.6-10.2,10.2-10.2V68L289.6,46H35.8z"/>
			<path fill="#939597" d="M35.8,45.9L13.7,68v22.9c5.7,0,10.2,4.6,10.2,10.2c0,5.7-4.6,10.2-10.2,10.2v22.9l22.1,22.1h253.8
				l22.1-22.1v-22.9c-5.7,0-10.2-4.6-10.2-10.2c0-5.7,4.6-10.2,10.2-10.2V68l-22.1-22.1H35.8z"/>
			<path fill="#929496" d="M35.8,45.9L13.7,68v22.9c5.7,0,10.2,4.6,10.2,10.2c0,5.7-4.6,10.2-10.2,10.2v22.9l22.1,22.1h253.8
				l22.1-22.1v-22.9c-5.7,0-10.2-4.6-10.2-10.2c0-5.7,4.6-10.2,10.2-10.2V68l-22.1-22.1H35.8z"/>
			<path fill="#919395" d="M35.8,45.9L13.8,68v22.9c5.7,0,10.2,4.6,10.2,10.2c0,5.7-4.6,10.2-10.2,10.2v22.9l22.1,22.1h253.8
				l22.1-22.1v-22.9c-5.7,0-10.2-4.6-10.2-10.2c0-5.7,4.6-10.2,10.2-10.2V68l-22.1-22.1H35.8z"/>
			<path fill="#909294" d="M35.8,45.9L13.8,68v22.9c5.7,0,10.2,4.6,10.2,10.2c0,5.7-4.6,10.2-10.2,10.2v22.9l22.1,22.1h253.8
				l22.1-22.1v-22.9c-5.7,0-10.2-4.6-10.2-10.2c0-5.7,4.6-10.2,10.2-10.2V68l-22.1-22.1H35.8z"/>
			<path fill="#8F9193" d="M35.9,45.9L13.8,67.9v22.9c5.7,0,10.2,4.6,10.2,10.2c0,5.7-4.6,10.2-10.2,10.2v22.9l22.1,22.1h253.8
				l22.1-22.1v-22.9c-5.7,0-10.2-4.6-10.2-10.2c0-5.7,4.6-10.2,10.2-10.2V67.9l-22.1-22.1H35.9z"/>
			<path fill="#8E9092" d="M35.9,45.8L13.8,67.9v22.9c5.7,0,10.2,4.6,10.2,10.2c0,5.7-4.6,10.2-10.2,10.2v22.9l22.1,22.1h253.8
				l22.1-22.1v-22.9c-5.7,0-10.2-4.6-10.2-10.2c0-5.7,4.6-10.2,10.2-10.2V67.9l-22.1-22.1H35.9z"/>
			<path fill="#8D8F91" d="M35.9,45.8L13.8,67.9v22.9c5.7,0,10.2,4.6,10.2,10.2c0,5.7-4.6,10.2-10.2,10.2v22.9l22.1,22.1h253.8
				l22.1-22.1v-22.9c-5.7,0-10.2-4.6-10.2-10.2c0-5.7,4.6-10.2,10.2-10.2V67.9l-22.1-22.1H35.9z"/>
			<path fill="#8C8E90" d="M35.9,45.8L13.9,67.9v22.9c5.7,0,10.2,4.6,10.2,10.2c0,5.7-4.6,10.2-10.2,10.2v22.9l22.1,22.1h253.8
				l22.1-22.1v-22.9c-5.7,0-10.2-4.6-10.2-10.2c0-5.7,4.6-10.2,10.2-10.2V67.9l-22.1-22.1H35.9z"/>
			<path fill="#8B8D8F" d="M35.9,45.8L13.9,67.9v22.9c5.7,0,10.2,4.6,10.2,10.2c0,5.7-4.6,10.2-10.2,10.2v22.9l22.1,22.1h253.8
				l22.1-22.1v-22.9c-5.7,0-10.2-4.6-10.2-10.2c0-5.7,4.6-10.2,10.2-10.2V67.9l-22.1-22.1H35.9z"/>
			<path fill="#8A8C8E" d="M36,45.8L13.9,67.8v22.9c5.7,0,10.2,4.6,10.2,10.2c0,5.7-4.6,10.2-10.2,10.2V134L36,156.1h253.8
				l22.1-22.1v-22.9c-5.7,0-10.2-4.6-10.2-10.2c0-5.7,4.6-10.2,10.2-10.2V67.8l-22.1-22.1H36z"/>
			<path fill="#898B8D" d="M36,45.7L13.9,67.8v22.9c5.7,0,10.2,4.6,10.2,10.2c0,5.7-4.6,10.2-10.2,10.2V134L36,156.1h253.8
				l22.1-22.1v-22.9c-5.7,0-10.2-4.6-10.2-10.2c0-5.7,4.6-10.2,10.2-10.2V67.8l-22.1-22.1H36z"/>
			<path fill="#888A8C" d="M36,45.7L13.9,67.8v22.9c5.7,0,10.2,4.6,10.2,10.2c0,5.7-4.6,10.2-10.2,10.2V134L36,156.1h253.8
				l22.1-22.1v-22.9c-5.7,0-10.2-4.6-10.2-10.2c0-5.7,4.6-10.2,10.2-10.2V67.8l-22.1-22.1H36z"/>
			<path fill="#87898B" d="M36,45.7L14,67.8v22.9c5.7,0,10.2,4.6,10.2,10.2c0,5.7-4.6,10.2-10.2,10.2V134L36,156h253.8l22.1-22.1
				v-22.9c-5.7,0-10.2-4.6-10.2-10.2c0-5.7,4.6-10.2,10.2-10.2V67.8l-22.1-22.1H36z"/>
			<path fill="#86888A" d="M36.1,45.7L14,67.7v22.9c5.7,0,10.2,4.6,10.2,10.2c0,5.7-4.6,10.2-10.2,10.2V134L36,156h253.8l22.1-22.1
				v-22.9c-5.7,0-10.2-4.6-10.2-10.2c0-5.7,4.6-10.2,10.2-10.2V67.7l-22.1-22.1H36.1z"/>
			<path fill="#858789" d="M36.1,45.7L14,67.7v22.9c5.7,0,10.2,4.6,10.2,10.2c0,5.7-4.6,10.2-10.2,10.2v22.9L36.1,156h253.8
				l22.1-22.1v-22.9c-5.7,0-10.2-4.6-10.2-10.2c0-5.7,4.6-10.2,10.2-10.2V67.7l-22.1-22.1H36.1z"/>
			<path fill="#848689" d="M36.1,45.6L14,67.7v22.9c5.7,0,10.2,4.6,10.2,10.2c0,5.7-4.6,10.2-10.2,10.2v22.9L36.1,156h253.8
				l22.1-22.1v-22.9c-5.7,0-10.2-4.6-10.2-10.2c0-5.7,4.6-10.2,10.2-10.2V67.7l-22.1-22.1H36.1z"/>
			<path fill="#838588" d="M36.1,45.6L14,67.7v22.9c5.7,0,10.2,4.6,10.2,10.2c0,5.7-4.6,10.2-10.2,10.2v22.9L36.1,156h253.8
				l22.1-22.1V111c-5.7,0-10.2-4.6-10.2-10.2c0-5.7,4.6-10.2,10.2-10.2V67.7l-22.1-22.1H36.1z"/>
			<path fill="#828487" d="M36.1,45.6L14.1,67.7v22.9c5.7,0,10.2,4.6,10.2,10.2c0,5.7-4.6,10.2-10.2,10.2v22.9l22.1,22.1h253.8
				l22.1-22.1V111c-5.7,0-10.2-4.6-10.2-10.2c0-5.7,4.6-10.2,10.2-10.2V67.7l-22.1-22.1H36.1z"/>
			<path fill="#818386" d="M36.2,45.6L14.1,67.6v22.9c5.7,0,10.2,4.6,10.2,10.2c0,5.7-4.6,10.2-10.2,10.2v22.9l22.1,22.1h253.8
				l22.1-22.1V111c-5.7,0-10.2-4.6-10.2-10.2c0-5.7,4.6-10.2,10.2-10.2V67.6l-22.1-22.1H36.2z"/>
			<path fill="#666666" d="M36.2,45.6L14.1,67.6v22.9c5.7,0,10.2,4.6,10.2,10.2c0,5.7-4.6,10.2-10.2,10.2v22.9l22.1,22.1H290
				l22.1-22.1V111c-5.7,0-10.2-4.6-10.2-10.2c0-5.7,4.6-10.2,10.2-10.2V67.6L290,45.6H36.2z"/>
		</g>
		<path display="inline" fill="#009245" d="M36.2,45.6L14.1,67.6v22.9c5.7,0,10.2,4.6,10.2,10.2c0,5.7-4.6,10.2-10.2,10.2v22.9
			l22.1,22.1H290l22.1-22.1V111c-5.7,0-10.2-4.6-10.2-10.2c0-5.7,4.6-10.2,10.2-10.2V67.6L290,45.6H36.2z"/>
		<g display="inline">
			<polygon fill="#FFFFFF" points="37,59.5 37,56.8 291.5,56.8 291.5,59.5 37,59.5 			"/>
		</g>
		<g display="inline">
			<polygon fill="#FFFFFF" points="37,66 37,63.4 291.5,63.4 291.5,66 37,66 			"/>
		</g>
		<g display="inline">
			<polygon fill="#FFFFFF" points="37,72.6 37,70 291.5,70 291.5,72.6 37,72.6 			"/>
		</g>
		<g display="inline">
			<polygon fill="#FFFFFF" points="37,132.6 37,129.9 291.5,129.9 291.5,132.6 37,132.6 			"/>
		</g>
		<g display="inline">
			<polygon fill="#FFFFFF" points="37,139.1 37,136.5 291.5,136.5 291.5,139.1 37,139.1 			"/>
		</g>
		<g display="inline">
			<polygon fill="#FFFFFF" points="37,145.7 37,143.1 291.5,143.1 291.5,145.7 37,145.7 			"/>
		</g>
		<polygon display="inline" fill="#FFFFFF" points="268.5,112.7 272.2,105.3 280.4,104.1 274.5,98.3 275.9,90.1 268.5,94 
			261.2,90.1 262.6,98.3 256.7,104.1 264.9,105.3 		"/>
		<polygon display="inline" fill="#FFFFFF" points="60.2,112.7 63.9,105.3 72.1,104.1 66.2,98.3 67.6,90.1 60.2,94 52.9,90.1 
			54.3,98.3 48.3,104.1 56.6,105.3 		"/>
		<g display="inline">
			<path fill="#FFFFFF" d="M94.8,106.9H81.6l-2.2,4.8h-5.1l11.3-25.2h5.2l11.3,25.2h-5.2L94.8,106.9z M88.2,91.8l-4.7,10.7h9.4
				L88.2,91.8z"/>
			<path fill="#FFFFFF" d="M115.5,98.6c-1.3-1.2-2.7-1.6-4.4-1.6c-2.1,0-3.2,0.6-3.2,1.8c0,1.2,1,1.8,3.3,1.9c3.3,0.2,7.6,1,7.6,5.7
				c0,3.1-2.6,5.8-7.6,5.8c-2.8,0-5.6-0.5-8.2-3.2l2.2-3.1c1.3,1.4,4.1,2.4,6.1,2.5c1.7,0,3.2-0.8,3.2-2.1c0-1.2-1-1.7-3.5-1.9
				c-3.3-0.3-7.3-1.5-7.3-5.5c0-4.1,4.2-5.5,7.5-5.5c2.8,0,4.9,0.5,6.9,2.3L115.5,98.6z"/>
			<path fill="#FFFFFF" d="M125.9,86.5v14.5l6-7.1h5.3v0.3l-7.2,8.1l8.2,9.1v0.3h-5.3l-7-8v8h-4.4V86.5H125.9z"/>
			<path fill="#FFFFFF" d="M153.2,111.7v-9.3c0-2.7-1.5-4.8-4.3-4.8c-2.7,0-4.5,2.3-4.5,5v9.1H140V93.9h3.9l0.3,2.4
				c1.8-1.8,3.6-2.7,5.8-2.7c4.2,0,7.5,3.1,7.5,8.7v9.3H153.2z"/>
			<path fill="#FFFFFF" d="M177.3,92.6c-0.9-1.4-3.2-2.8-6-2.8c-3.5,0-5.2,1.5-5.2,3.3c0,2.2,2.6,2.8,5.6,3.2c5.3,0.6,10.2,2,10.2,8
				c0,5.6-5,8-10.6,8c-5.1,0-9.1-1.6-11-6.2l4-2.1c1.1,2.8,4,4,7.1,4c3,0,5.8-1,5.8-3.8c0-2.4-2.5-3.3-5.8-3.7
				c-5.1-0.6-9.9-2-9.9-7.6c0-5.2,5.1-7.3,9.8-7.3c3.9,0,8,1.1,9.9,5L177.3,92.6z"/>
			<path fill="#FFFFFF" d="M203.6,102.8c0,5.1-3.5,9.3-9.3,9.3c-5.8,0-9.2-4.1-9.2-9.3c0-5.1,3.5-9.3,9.2-9.3
				C199.9,93.6,203.6,97.7,203.6,102.8z M189.5,102.8c0,2.7,1.6,5.2,4.8,5.2c3.2,0,4.8-2.5,4.8-5.2c0-2.7-1.9-5.3-4.8-5.3
				C191.1,97.6,189.5,100.2,189.5,102.8z"/>
			<path fill="#FFFFFF" d="M210.9,86.5v25.2h-4.4V86.5H210.9z"/>
			<path fill="#FFFFFF" d="M233.2,93.9l-7.6,17.9h-4.8l-7.6-17.9h4.8l2.4,5.9l2.7,7.5l2.7-7.4l2.4-5.9H233.2z"/>
			<path fill="#FFFFFF" d="M239.1,104.4c0.3,2.2,2.2,3.8,5.3,3.8c1.6,0,3.7-0.6,4.8-1.7l2.8,2.8c-1.9,1.9-4.9,2.9-7.6,2.9
				c-6.1,0-9.8-3.8-9.8-9.5c0-5.4,3.7-9.3,9.4-9.3c5.9,0,9.7,3.7,9,11H239.1z M248.7,100.7c-0.3-2.3-2.1-3.5-4.6-3.5
				c-2.4,0-4.3,1.2-5,3.5H248.7z"/>
		</g>
	</g>
	<g>
		<path fill="#7AC943" d="M153.2,102.6l-17-17c-0.8-0.8-0.8-2,0-2.8l35.4-35.4c0.8-0.8,2-0.8,2.8,0l17,17c0.8,0.8,0.8,2,0,2.8
			L156,102.6C155.2,103.3,154,103.3,153.2,102.6z"/>
		<path fill="#009245" d="M189.9,49.8c-4.6-4.6-4.2-12.3,0-16.5l-13.5-13.5l-67.9,67.9l13.1,13.1c4.2-4.2,11.9-4.6,16.5,0
			c4.6,4.6,4.2,12.3,0,16.5l12.8,12.8l67.9-67.9l-12.4-12.4C202.1,54.1,194.4,54.4,189.9,49.8z M197.6,63.7c1.2,1.2,1.2,3.1,0,4.2
			l-41,41c-1.2,1.2-3.1,1.2-4.2,0l-22.6-22.6c-1.2-1.2-1.2-3.1,0-4.2l41-41c1.2-1.2,3.1-1.2,4.2,0L197.6,63.7z"/>
	</g>
</g>
</svg>
